<?xml version="1.0" encoding="utf-8"?>
<!-- Generator: Adobe Illustrator 18.1.1, SVG Export Plug-In . SVG Version: 6.00 Build 0)  -->
<svg version="1.1" id="svg2" xmlns:svg="http://www.w3.org/2000/svg"
	 xmlns="http://www.w3.org/2000/svg" xmlns:xlink="http://www.w3.org/1999/xlink" x="0px" y="0px" viewBox="155 259 950 620"
	 enable-background="new 155 259 950 620" xml:space="preserve">
<path id="kalimantan" fill="#444444" d="M936.7,583.4l-2.3,8.7l-12.5,4.2l-3.8-4.4l-1.8,0.5l3.4,13.1l5.1,0.6l6.8,2.6v2.6l3.1-0.6
	l4.5-6.3v-5.1l2.5-5.1l2.8,0.6l-3.4-7.1l-0.5-4.6L936.7,583.4L936.7,583.4z"/>
<path id="papua_new_guinea" fill="#444444" d="M1007.8,607.3l-0.4,24.4l3.5-0.2l4.6-5.4l3.9,0.2l2.5,2.2l0.8,6.9l8,4.2l2-0.8v-2.5
	l-6.4-5.3l-3.2-7.3l2.5-1.2l-1.8-4l-3.7-0.1l-0.9-4.3l-9.8-6.6L1007.8,607.3L1007.8,607.3z"/>
<path id="mexico" fill="#444444" d="M292.5,484.4l4.8,15.2l-2.3,1.3l0.3,3l4.3,3.3v6l5.3,5l-2.3-14.9l-3-9.8l0.8-6.8l2.5,0.3l1,2.3
	l-1,5.8l13,25.4v9.1l10.5,12.3l11.5,5.3l4.8-2.8l6.8,5.5l4-4l-1.8-4.5l5.8-1.8l1.8,1l1.8-1.8h2.8l5-8.8l-2.5-2.3l-9.8,2.3l-2.3,6.5
	l-5.8,1l-6.8-2.8l-3-9.6l2.3-12.1l-4.6-2.9l-2.2-11.6l-1.8-0.8l-3.4,3.4l-3.9-2.1l-1.5-7.7L308,490l-7.9-6L292.5,484.4L292.5,484.4z
	"/>
<path id="estonia" fill="#444444" d="M672.8,402.7l-5.6-0.2l-3.5,2.2l0,1.6l2.3,2.2l7.2,1.2L672.8,402.7L672.8,402.7z"/>
<path id="algeria" fill="#444444" d="M628.9,486.5l-4.1-1.4l-17,3.2l-3.7,2.8l2.3,11.7l-6.8,0.3l-4.1,6.5l-9.7,2.3l0,4.8l31.9,24.3
	l5.4,0.5l18.1-14.1l-1.8-2.3l-3.4-0.5l-2-3.4V507l-1.4-1.4l0.2-3.6l-3.6-3.6l-0.5-3.9l1.6-1.1l-0.7-4.1L628.9,486.5L628.9,486.5z"/>
<path id="morocco" fill="#444444" d="M603.3,491.3h-11.6l-2.3,5l-5.2,2.5l-4.3,11.6l-8.4,5l-11.8,19.4l11.5-0.2l0.5-5.7h2.9v-7.8
	H585l0.2-10l9.7-2.3l4.1-6.6l6.3-0.2L603.3,491.3L603.3,491.3z"/>
<path id="mauretania" fill="#444444" d="M559.9,535.7l2.2,2.8l-0.4,12.3l3.2-2.3l2.3-0.5l3.2,1.1l3.6,5l3.4-2.3l16.5-0.2l-4.1-27.6
	l4.4,0l-8.2-6.3l0,4.1l-10.3,0l0,7.8l-3,0l-0.4,5.7L559.9,535.7L559.9,535.7z"/>
<path id="senegal" fill="#444444" d="M565.1,549.3l-3.9,2.9l-0.9,1.6l-0.3,1.6l1.5,1l4.8-0.1l3.1-0.8l0.3,1.5l-0.3,2l3,1.5l0.6,0.7
	l3.9,0.1l0.1-1.7l-3.6-4.3l-4-5.4l-2.5-1L565.1,549.3L565.1,549.3z"/>
<path id="gambia" fill="#444444" d="M561.9,557.3l-0.1,1.1l6.9-0.1l0.3-1l-0.2-1l-2,0.8L561.9,557.3L561.9,557.3z"/>
<path id="casamance" fill="#444444" d="M561.8,559.2l1.2,3l0.7-1.9l8.4,0.9l-3.6-1.9L561.8,559.2L561.8,559.2z"/>
<path id="bissau" fill="#444444" d="M563.6,563.5l1.4,2.8l3.9-3.4l0-1l-4.6-0.7L563.6,563.5L563.6,563.5z"/>
<path id="guinee" fill="#444444" d="M565.4,566.9l3,4.7l4-3.4l4.1-0.2l3.4,4.5l2.9,1.9l1.1-2.1l1-0.5l-0.1-4.6l-1.9-5.5l-5.9,0.6
	l-7.3-0.6l0,1.9L565.4,566.9L565.4,566.9z"/>
<path id="sierra_leone" fill="#444444" d="M568.9,572.1l5.6,5.5l4-4.9l-2.5-3.9l-3.5,0.3L568.9,572.1L568.9,572.1z"/>
<path id="liberia" fill="#444444" d="M575.2,578.2l11,7.3l-0.3-5.6l-3.3-3.9l-3.2-2.9L575.2,578.2L575.2,578.2z"/>
<path id="ivoire" fill="#444444" d="M587.1,585.8l4.3-3l5.3-0.9l5.4,1.2l-2.8-4.2l-0.8-2.6l0.8-7.6l-4.9,0.2l-2.2-2.1l-4.6,0.1
	l-2.2,0.3l0.2,5.1l-1.2,0.5l-1.4,2.6l3.6,4.2L587.1,585.8L587.1,585.8z"/>
<path id="mali" fill="#444444" d="M574.5,554.8l3.1-2.1l17.1-0.1l-4-27.5l4.5-0.1l21.9,16.7l2.9,0.4l-1.1,9.3l-13.8,1.3l-10.6,7.9
	l-1.9,5.4l-7.4,0.3l-1.9-5.4l-5.7,0.4l0.2-1.8L574.5,554.8L574.5,554.8z"/>
<path id="burkina" fill="#444444" d="M605.6,553.3l3.6-0.3l6,8.4l-5.5,4.2l-4-1l-5.4,0.1l-0.9,3.2l-4.5,0.2l-1.2-1.7l1.6-5.1
	L605.6,553.3L605.6,553.3z"/>
<path id="niger" fill="#444444" d="M615.9,561l2.5-0.1l2.3-3.5l3.9-0.7l4.1,2.5l8.8,0.3l6.8-2.8l2.5-2.2l0.2-2.9l4.7-4.8l1.3-10.5
	l-3.1-6.5l-8-1.9l-18.4,14.4l-2.6-0.3l-1.1,10l-9.4,0.9L615.9,561L615.9,561z"/>
<path id="ghana" fill="#444444" d="M599.3,576l1.1,2.6l2.9,4.6l1.6-0.1l4.4-2.5l-0.3-14.3l-3.4-1l-4.8,0.1L599.3,576L599.3,576z"/>
<path id="togo" fill="#444444" d="M610.2,580.3l2.7-1.6l-0.1-10.4l-1.7-2.8l-1.1,0.9L610.2,580.3L610.2,580.3z"/>
<path id="benin" fill="#444444" d="M613.7,578.5h2.1l0.1-6l2.7-3.9l-0.1-6.8l-2.4-0.1l-4.2,3.3l1.7,3.3L613.7,578.5L613.7,578.5z"/>
<path id="nigeria" fill="#444444" d="M616.6,578.4l3.9,0.2l4.7,5.3l2.3,0.6l1.8-0.9l2.7-0.4l0.9-3.8l3.7-2.5l4-0.2l7.4-13.6
	l-0.1-3.1l-3.4-2.6l-6.8,3l-9.2-0.1l-4.4-2.8l-3.1,0.7l-1.6,2.8l-0.1,8l-2.6,3.7L616.6,578.4L616.6,578.4z"/>
<path id="tunisia" fill="#444444" d="M629.9,486.3l5.5-2.2l1.8,1.2l0.1,1.4l-0.9,1.1l0.1,2l0.9,0.5v3.5l-1,1.6l0.1,1l3.7,1.3l-3,4.7
	l-1.2-0.1l-0.2,3.7l-1.3,0.2l-1.1-1l0.3-3.8l-3.6-3.5l-0.5-3.1l1.8-1.4L629.9,486.3L629.9,486.3z"/>
<path id="libya" fill="#444444" d="M635,507l1.6-0.3l0.5-3.6h0.8l3.2-5.2l7.9,2.3l2.1,3.3l7.7,3.5l4-1.7l-0.4-1.7l-1.8-1.7l0.2-1.2
	l2.9-2.4h5.7l2.2,2.9l4.5,0.7l0.6,36.9l-3.4-0.1l-20.4-10.6l-2.2,1.3l-8.4-2.1l-2.3-3l-3.3-0.5l-1.7-3L635,507L635,507z"/>
<path id="egypt" fill="#444444" d="M676.9,502.1l2.7,0.1l5.2,1.4l2.5,0.1l3.1-2.6h1.4l2.6,1.4h3.3l0.6,0l2.1,6l0.6,1.9l0.5,2.9
	l-1,0.7l-1.7-0.8l-2-6.4l-1.8-0.1l-0.1,2.2l1.2,3.7l9.4,11.6l0.2,5l-2.7,3.2l-25.6-0.3L676.9,502.1L676.9,502.1z"/>
<path id="chad" fill="#444444" d="M647.8,555l0.1-3l4.7-4.6l1.3-11.3l-3.2-6l2.2-1.1l21.4,11.2l-0.1,10.9l-3.8,3.2v5.6l2.5,4.8h-4.4
	l-7.2,7.1l-0.2,2.2l-5.3-0.1l-0.1,1l-3-0.4l-2.1-3.9l-1.6-0.8l0.2-1.2l2-1.5v-7l-2.7-0.4l-3.3-2.4L647.8,555L647.8,555L647.8,555z"
	/>
<path id="sudan" fill="#444444" d="M675.2,551.4l0.2-11.8l2.5,0.1l-0.3-6.6l25.8,0.2l3.7-3.7l8,12.7l-4.4,5.1v7.9l-6.9,14.8l-2.4,1
	l0.8,4.1h2.9l4,5.8l-3.2,0.4l-0.8,1.5l-0.1,2.2l-9.6-0.2l-1-1.5l-6.7-0.4l-12.3-12.7l1.2-0.7l0.3-3l-3-1.7l-2.7-5.3l0.2-4.9
	L675.2,551.4L675.2,551.4z"/>
<path id="cameroon" fill="#444444" d="M632.8,583.3l3.2,3l-0.2,4.6l17.7-0.4l1.4-1.6l-5.1-5.5l-0.8-2l3.2-6l-2.2-4l-1.8-1v-2
	l2.1-1.4l0.1-6.3l-1.7-0.2l0,3.3l-7.4,13.8l-4.5,0.2l-3.1,2.1L632.8,583.3L632.8,583.3z"/>
<path id="eritrea" fill="#444444" d="M711.7,553.7l-0.3-5.9l4-4.6l1.1,0.8l2,6.5l9.4,7l-1.7,2.1l-6.8-5.9L711.7,553.7L711.7,553.7z"
	/>
<path id="djibouti" fill="#444444" d="M726.5,560.5l-0.6,3.4l4-0.1l0.1-4.9l-1.5-0.9L726.5,560.5L726.5,560.5z"/>
<path id="ethiopia" fill="#444444" d="M704.5,570.8l7.3-16.2l7.2,0l6.4,5.6l-0.5,4.6h5l0.5,2.8l8,4.8l5,0.3l-9.4,10.1l-13,4h-3.2
	l-5.7-4.9l-2.3-1l-4.4-6.5l-2.9,0l-0.3-3L704.5,570.8L704.5,570.8z"/>
<path id="somaliland" fill="#444444" d="M730.7,564l4.1,2.8l1.2-0.1l10.1-3.5l1.2,3.7l-0.8,3.1l-2.2,1.7l-5.5-0.3l-7.8-4.8
	L730.7,564L730.7,564z"/>
<path id="soqotra" fill="#444444" d="M754.6,558.7l2.1,2.4l2.9-1.7l1-0.4l-1.3-1.3l-2.5,0.8L754.6,558.7L754.6,558.7z"/>
<path id="somalia" fill="#444444" d="M747,563l4.4-1.7l1.5,0.9l-0.2,3.9l-4,11.5L726.9,601l-2.5-1.7l-0.2-9.9l3.3-3.8l7-2.1
	l10.2-10.8l2.7-2.4l0.8-3.5L747,563L747,563z"/>
<path id="centrafrique" fill="#444444" d="M650.7,583l4.7,5l1.8-2.4l2.9,0.1l0.6-2.3l2.9-1.8l6,4.1l3.5-3.4l13.4,0.6L674,570.2
	l1.7-1l0.2-2.3l-2.8-1.3h-4.1l-6.7,6.6l-0.2,2.7l-5.3-0.2l-0.2,1.2l-3.5-0.4l-3.1,5.9L650.7,583L650.7,583z"/>
<path id="sao_tome" fill="#444444" d="M625.7,596.2l1.2-0.6l0.9,0.7l-0.9,1.3l-1-0.4L625.7,596.2L625.7,596.2z"/>
<path id="principe" fill="#444444" d="M628,592.5l1.7-0.3l0.6,1.1l-0.9,0.9l-0.9-0.1L628,592.5L628,592.5z"/>
<path id="bioko" fill="#444444" d="M631.8,586.4l-0.5,2l1.4,0.8l1.3-1l-0.5-2L631.8,586.4L631.8,586.4z"/>
<path id="gabon" fill="#444444" d="M641.4,591.6l-0.1,2.5l-5.6-0.1l-3.5,6.7l8.1,8.9l2-1.7l-0.1-1.7l-1.4-0.6v-1.2l3.1-2l2.8,2.1
	l3,0.1l-0.1-10.5l-4.8-0.2l-0.1-2.2L641.4,591.6L641.4,591.6z"/>
<path id="equatorial_guinea" fill="#444444" d="M636,591.7l-0.1,1.4l4.5,0.2l-0.1-1.6L636,591.7L636,591.7z"/>
<path id="congo" fill="#444444" d="M646,591.5l-0.1,1.4l4.8,0.1l0.2,12.4l-4.4-0.1l-2.5-2l-2,1.1l-0.1,0.5l1,0.5l0.3,2.5l-2.7,2.3
	l0.6,1.2l3-2.3h1.4l0.5,1.4l1.9,0.8l6.1-5.2l-0.1-3.8l1.3-3.1l3.9-2.9l1-9.8l-2.8,0l-3.2,4.4L646,591.5L646,591.5z"/>
<path id="cabinda" fill="#444444" d="M641.5,612.2l1.7,2.3l2.3-2.1l-0.7-2.2l-0.6,0L641.5,612.2L641.5,612.2z"/>
<path id="drc" fill="#444444" d="M644.4,614.7l10.3-0.2l2.1,3l-0.1,2.2l0.8,0.7h5.1l1.5-2.9h2.1l0.8,0.9l2.9-0.1l0.8,10.1l5,0.2v0.8
	l13.3,6l0.6,1.2h2.8l-0.3-4.2l-5-2.4l0.3-3.2l2.2-5.1l5-0.2l-4.3-14.1l0.1-6l6.7-10.5l0.1-1.5l-1-0.6l0-2.9l-1.2-0.1l-1.2-1.6
	l-20.3-0.9l-3.7,3.6l-6.1-4l-2.1,1.3l-1.6,13.1l-3.9,3l-1.2,2.6l0.2,3.9l-7,5.7l-1.9-0.8l0.3,1.1L644.4,614.7L644.4,614.7z"/>
<path id="rwanda" fill="#444444" d="M692.8,598.9l2.8,2.6l-0.1,2.8l-4.4,0.1v-3.1L692.8,598.9L692.8,598.9z"/>
<path id="burundi" fill="#444444" d="M691.2,605.2l4.3-0.1l-1.1,3.7l-1.1,0.9H692l-0.9-2.5L691.2,605.2L691.2,605.2z"/>
<path id="uganda" fill="#444444" d="M693.3,598.1l3,2.8l1.9-1.2l5.1-0.8l0.9,0.1l0.3-1.9l2.9-6.1l-2.4-5.1l-7.9,0.1l0,2.1l1.1,1
	l-0.2,2.1L693.3,598.1L693.3,598.1z"/>
<path id="kenya" fill="#444444" d="M705.8,585.5l2.7,5.2l-3.2,6.7l-0.4,2l15.9,9.9l4.9-7.8l-2.5-2l0-10.2l3.1-3.4l-5,1.7l-3.8,0
	l-5.9-5l-1.9-0.8l-3.5,0.3l-0.6,1L705.8,585.5L705.8,585.5z"/>
<path id="tanzania" fill="#444444" d="M705.6,630.4l17.5-2.1l-3.9-7.6l-0.2-7.3l1.3-3.5l-16.6-10.4l-5.2,0.9l-1.8,1.3l-0.2,3.1
	l-1.2,4.2l-1.2,1.5l-1.8,0.2l3.3,11.6l5.5,2.6l3.8,0.1L705.6,630.4L705.6,630.4z"/>
<path id="zambia" fill="#444444" d="M669.5,643.7l3.2,4.4l4.9,0.3l1.7,1l5.1,0.1l4.4-6.2l12.4-5.5l1.1-4.9l-1.4-7l-6.5-3.7l-4.3,0.3
	l-2.2,4.8l0.1,2.2l5.1,2.5l0.3,5.4l-4.4,0.2l-1.1-1.8l-12.1-5.2l-0.4,4l-5.7,0.2L669.5,643.7L669.5,643.7z"/>
<path id="angola" fill="#444444" d="M643.6,615.7l3.4,12.7l-0.1,4l-5,5.4l-0.8,8.7l19.2,0.2l6.2,2.3l5.2-0.7l-3-3.8l0-10.7l5.9-0.3
	v-4.2l-4.8-0.2l-1-9.9l-2,0l-1.1-1l-1.2,0.1l-1.6,3.1H657l-1.4-1.4l0.4-2l-1.7-2.4L643.6,615.7L643.6,615.7z"/>
<path id="malawi" fill="#444444" d="M702.2,638.4l3.1,3.3l-0.1,4.2l0.6,1.8l4.1-4.5l-0.5-5.7l-2.2-1.7l-2-10l-3.4-0.1l1.5,7.2
	L702.2,638.4L702.2,638.4z"/>
<path id="mozambique" fill="#444444" d="M696.2,672.3l2.7,2.2l6.3-3.9l1-5.7v-9.5l10.2-8.3l1.7,0.1l6.2-5.9l-1-12.2l-16.3,2.1
	l0.5,3.7l2.8,2.2l0.7,6.6l-5.5,5.4l-1.3-3l0.2-4l-3.2-3.4l-7.8,3.6l7.2,3.7l0.2,10.7l-4.8,7.1L696.2,672.3L696.2,672.3z"/>
<path id="zimbabwe" fill="#444444" d="M679.7,651.3l9,10.1l6.9,1.8l4.6-7.2l-0.4-9.6l-7.5-3.9l-2.8,1.3l-4.2,6.4l-5.8-0.1
	L679.7,651.3L679.7,651.3z"/>
<path id="namibia" fill="#444444" d="M651.5,681l3.4,0.2l2,2l4.7,0.1l1.1-13.3v-8.7l3-0.6l1.1-9.1l7.6-0.2l2.7-2.2l-4.5-0.2
	l-6.2,0.8l-6.6-2.4h-18.7l0.5,5.3l6.2,9.2l-1.1,4.7l0.1,2.5L651.5,681L651.5,681z"/>
<path id="botswana" fill="#444444" d="M663.5,670.2l2.2,0.7l-0.3,6.2l2.2,0.3l5.1-4.6l6.1,0.7l1.6-4.1l7.7-7l-9.3-10.7l-0.1-1.8
	l-1-0.3l-2.8,2.6l-7.3,0.2l-1,9.1l-2.9,0.7L663.5,670.2L663.5,670.2z"/>
<path id="swaziland" fill="#444444" d="M695.9,673l-2.5,0.4l-1.1,2.9l1.9,1.8h2.3l2-2.8L695.9,673L695.9,673z"/>
<path id="lesotho" fill="#444444" d="M682.4,684.4l3-2.3l1.4,0.1l1.7,2.2l-0.2,2.2l-2.9,1.1v0.8l-3.2-0.2l-0.8-2.4L682.4,684.4
	L682.4,684.4z"/>
<path id="south_africa" fill="#444444" d="M689.2,662.6l-7.9,7.3l-1.9,4.5l-6.3-0.8l-5.2,4.6l-3.5-0.3l0.3-6.4l-1.2-0.4l-0.9,13.1
	l-6.1-0.1l-1.8-2.2l-2.7,0l2.5,7.1l4.4,4.2l-3.2,3.7l2,4.6l4.7,1.8l3.8-3.2l10.8,0.1l0.8-1l4.8-0.8l16.2-16.1l-0.1-5.1l-1.7,2.2
	h-2.6l-3.2-2.6l1.6-4l2.8-0.6l-0.3-8.2L689.2,662.6L689.2,662.6z M685.4,681.1l1.5-0.1l2.5,2.7l-0.1,3.1l-2.9,1.5l-0.2,1l-4.4,0
	l-1.4-3.3l1.3-2.4L685.4,681.1L685.4,681.1z"/>
<path id="greenland" fill="#444444" d="M476.1,309.1l-1.4,2.2l2.5,2.5l-1.1,2.5l3.5,4.6l4.4-1.4l5.7-0.5l6.5,7.1l4.4,11.7l-3.5,7.3
	l4.9-0.8l2.7,1.6l0.3,3.5l-6,0.3l3.3,3.3l4.1,0.8l-9,12l-1.1,7.3l1.9,6l-1.4,3.5l2.5,7.6l4.6,5.2l1.4-0.3l3-0.8l0.3,4.4l1.9,2.7
	l3.5-0.3l2.7-10.1l8.2-10.1L537,376l7.6-9.5l3.5,1.6h7.3l6-6l7.3-3l0.8-4.6l-4.6-4.1L561,349l-2.2-5.7l5.2-3l8.2,4.4l2.7-3l-4.4-2.5
	l9.3-12.5l-1.6-5.4l-4.4-0.3l1.6-4.9l5.4-2.5l11.1-9.8l-3.3-3.5l-12.5,1.1l-6.5,6.5l3.8-8.4l-4.3-1.1l-2.5,4.4l-3.5-3l-9.8,1.1
	l2.7-4.3l16-0.5l-4.1-5.4l-17.4-3.3l-7.1,1.1l0.3,3.5l-7.3-2.4l0.3-2.5l-5.2,1.1l-1.1,2.7l5.4,1.9l-5.7,4.1l-4.1-4.6l-5.7-1.6
	l-0.8,4.3h-5.7l-2.2-4.6l-9-1.4l-4.9,2.4l-0.3,3.3l-6.3-0.8l-3.8,1.6l0.3,3.8v1.9l-7.1,1.4l-3.3-2.2l-2.2,3.5l3.3,3.5l6.8-0.8
	l0.5,2.2l-5.2,2.4L476.1,309.1L476.1,309.1z"/>
<path id="disko" fill="#444444" d="M497.9,351.5l1.6,2.5l-0.8,3h-1.6l-2.2-2.5l0.5-1.9L497.9,351.5L497.9,351.5z"/>
<path id="milne" fill="#444444" d="M565.9,344.7l4.6,1.4l-0.3,3.8l-4.9-2.4l-1.1-1.4L565.9,344.7L565.9,344.7z"/>
<path id="east_antarctica" fill="#444444" d="M543.5,882l3.8-5.1l14.9-7.7l2.5-5.5l6.4-1.3l6-7.7l6-0.4l1.3-6l5.1-3.8l4.3,1.3
	l12.3-3.8l3,3l5.5,0.4l5.1-2.5l30.6-0.4l11.1,3l14-3l4.7,0.4l1.3-4.3h4.7l6.4,6.8l11.9-7.7l13.2-3.8l4.7,3l0.4-6l6.8-0.8l7.2,3.4
	v3.4l18.3,7.7l5.1-0.4l2.1,2.5l-6,6.8v4.7l5.5,3l1.3-3l25.1-9.8l18.3-1.7l3.8,2.1l14.5,2.1l3.4,1.3l4.7-2.5l6.8-0.4l6.4,4.7l0.4,5.1
	l14.5-3l2.1,0.8l0.8,4.7l13.2,4.3l4.3-3l0.4,3.8l4.7,0.4l6.4,5.1l6-2.5l5.1,0.4h3.8l2.5-0.4l0.4,6.8l8.5,5.1L543.5,882L543.5,882z"
	/>
<path id="antarctic_peninsula" fill="#444444" d="M415,882l13.6-3.8l0.9-3.8l14.5-3.4l8.5,2.1l18.7-7.7l-0.4-8.1l-5.5-8.5l1.3-2.1
	l-2.1-5.5v-6h3.4l-2.1-4.3l15.3-13.2l-0.4,6l-3,0.8l-3,5.1l3,1.3l-3,4.3l-3.4-0.8l-1.7,3.8l0.4,5.1l5.1-0.4l3.4,4.7l1.3,6l6.8,8.5
	l0.4,10.6l-2.5,1.3l2.1,5.5l-1.3,2.1L415,882L415,882z"/>
<path id="thurston" fill="#444444" d="M405.2,874.3l5.1-0.8l2.1,1.7l-0.9,2.1l-0.4,2.5l-3,1.3l-2.1-2.5h-8.5v-1.7l3.8-0.8
	L405.2,874.3L405.2,874.3z"/>
<path id="alexander" fill="#444444" d="M459.7,846.7l-4.3,0.8l2.5,4.7l3,1.3l-1.3,2.5v1.7l-8.1,2.1l0.9,2.5l3.4,1.3l3.8-3l3.4,0.8
	l-2.1,3.4l1.3,0.8l3.8-1.7l3-5.5L459.7,846.7L459.7,846.7z"/>
<path id="smyley" fill="#444444" d="M450.8,865.8l-3.4,3l3,0.8l3.8,0.8l3.8-2.5l-3.8-0.8L450.8,865.8L450.8,865.8z"/>
<path id="robert" fill="#444444" d="M474.6,815.5l-2.5,0.5l-0.5,2.5l4.8-0.7L474.6,815.5L474.6,815.5z"/>
<path id="king_george" fill="#444444" d="M478.6,811.5l-3,0.6l0.6,2.3l3.6-0.1L478.6,811.5L478.6,811.5z"/>
<path id="james_ross" fill="#444444" d="M483.3,816.2l0,3.6l2,0.1l1.7-2.6L483.3,816.2L483.3,816.2z"/>
<path id="elephant" fill="#444444" d="M484.3,806.2l-2.2,0.8l-0.5,2l1.9,0.7l3.1-2.2L484.3,806.2L484.3,806.2z"/>
<path id="australia" fill="#444444" d="M916.2,687l-0.3,25.4l-3.9,2.9l-0.3,2.5l5.3,3.6l13.1-2.5h6.7l2.5-3.6l14.9-2.9l10.6,3.2
	l-0.7,4.3l1.4,4.3l8.2-1.4l0.3,2.1l-5.3,3.9l1.8,1.4l3.9-1.4l-1.1,11.8l7.5,5.7l4.3-1.4l2.1,2.1l12.4-1.8l11.7-19l4.3-1.1l8.5-15.7
	l2.1-13.6l-5.3-6.8l2.1-1.4l-4.3-13.2l-4.6-3.2l0.7-17.9l-4.3-3.2l-1.1-10h-2.1l-7.1,23.6l-3.9,0.4l-8.9-8.9l5-13.2l-9.2-1.8
	L973,643l-2.8,8.2l-4.6,1.1l-0.3-5.7L946.4,658l0.3,4.3l-2.8,3.9h-7.1l-15.3,6.4L916.2,687L916.2,687z"/>
<path id="tasmania" fill="#444444" d="M980.7,755.3l-1.8,7.2l0.3,5l5.3-0.4l6-9.3L980.7,755.3L980.7,755.3z"/>
<path id="new_zealand_north_island" fill="#444444" d="M1068,741l1.1,11.8l-1.4,5.4l-5.3,3.9l0.3,4.7v5l1.4,1.8l14.5-12.5v-2.9h-3.5
	l-5-16.8L1068,741L1068,741z"/>
<path id="new_zealand_south_island" fill="#444444" d="M1057.4,766.7l2.8,5.4l-7.8,7.5l-0.7,3.9l-5.3,0.7l-8.9,8.2l-8.2-3.9
	l-0.7-2.9l14.9-6.4L1057.4,766.7L1057.4,766.7z"/>
<path id="new_caledonia" fill="#444444" d="M1061.6,679.5l-0.3,1.8l4.6,6.4l2.5,1.1l0.3-2.5L1061.6,679.5L1061.6,679.5z"/>
<path id="sumatra" fill="#444444" d="M877.5,576.6l-0.3,2.3l6.8,11.4h2l14.2,23.7l5.7,0.6l2.8-8.3l-4.5-2.9l-0.8-4.6L877.5,576.6
	L877.5,576.6z"/>
<path id="east_malaysia" fill="#444444" d="M919.1,591.9l3,3.5l11.6-4l2.3-8.8l5.2-0.4l4.7-3.4l-6.1-4.5l-1.4-2.5l-3,5.6l1.1,3.2
	l-1.8,2.7l-3.5-0.9l-8.4,6.2l0.2,3.6L919.1,591.9L919.1,591.9z"/>
<path id="brunei" fill="#444444" d="M934.8,578.3l-2.9,3.5l2.4,0.7l1.3-1.9L934.8,578.3L934.8,578.3z"/>
<path id="sulawesi" fill="#444444" d="M944.5,608.1l2.3,2.8l-1.5,4.2v0.8h3.3l1.2-10.4l1.1,0.3l2,9.5l1.9,0.5l1.8-4.1l-1.8-6.1
	l-1.5-2.7l4.6-3.4l-1.1-1.5l-4.4,2.9h-1.2l-2.2-3.2l0.7-1.4l3.6-1.8l5.5,1.7l1.7-0.1l4.1-3.9l-1.7-1.7l-3.8,3h-2.5l-3.7-1.8
	l-2.7,0.1l-3,4.8l-1.9,8.2L944.5,608.1L944.5,608.1z"/>
<path id="maluku" fill="#444444" d="M969.2,589.5l-1.9,4.5l3,3.9h1l1.3-2.6l0.7-0.9l-1.3-1.4l-1.9-0.7L969.2,589.5L969.2,589.5z"/>
<path id="seram" fill="#444444" d="M975,604.5l-4,0.9l-1.2,1.3l1,1.7l2.7-1l1.7-1l2.5,2l1.1-0.9l-2-2.4L975,604.5L975,604.5z"/>
<path id="java" fill="#444444" d="M908.2,617.3l-2.8,1.9l0.6,1.6l8.8,2l4.4,0.8l1.9,2l5,0.4l2.4,2l2.2-0.5l2-1.8l-3.6-1.7l-3.1-2.7
	l-8.2-2L908.2,617.3L908.2,617.3z"/>
<path id="bali" fill="#444444" d="M936.8,625.9l-2.2,1.2l1.3,1.4l3.1-1.2L936.8,625.9L936.8,625.9z"/>
<path id="lombok" fill="#444444" d="M940.5,625l0.4,1.9l2.3,0.6l0.9-1.1l-1-1.5L940.5,625L940.5,625z"/>
<path id="sumba" fill="#444444" d="M945.9,630l-2.8,0.4l2.5,2.1h2L945.9,630L945.9,630z"/>
<path id="flores" fill="#444444" d="M946.7,626.7l-0.6,1.2l4.4,0.7l3.4-2l-2-0.6l-3.1,0.9l-1.2-1L946.7,626.7L946.7,626.7z"/>
<path id="timor" fill="#444444" d="M961.1,627.4l-5.1,4.3l0.5,1.1l2.2-0.4l2.5-2.4l5-0.7l-1-1.7L961.1,627.4L961.1,627.4z"/>
<path id="new_ireland" fill="#444444" d="M1035.5,608l-0.9,1.3l4.8,4.3l0.7,2.5l1.3-0.2l0.2-2.6l-1.5-1.3L1035.5,608L1035.5,608z"/>
<path id="new_britain" fill="#444444" d="M1037.9,614l-1,0.2l-0.6,2.6l-1.8,1.2l-5.5,1l0.2,2.1l5.8-0.3l3.6-2.3l-0.2-4L1037.9,614
	L1037.9,614z"/>
<path id="bougainville" fill="#444444" d="M1044.4,618.5l1.2,3.5l2.2,2.1l0.7-0.6l-0.2-2.3l-2.5-3L1044.4,618.5L1044.4,618.5z"/>
<path id="choiseul" fill="#444444" d="M1050.4,623.7l0.2,2.3l1.4,1.3l1.3-0.8l-1.2-2.4L1050.4,623.7L1050.4,623.7z"/>
<path id="new_georgia" fill="#444444" d="M1052.2,629.3l-1.2,1.3l1.2,2.3l1.5,0.4l-0.1-1.5L1052.2,629.3L1052.2,629.3z"/>
<path id="santa_isabel" fill="#444444" d="M1055,628l1,2.5l2,2.3l1.1-1.8l-1.5-2.5L1055,628L1055,628z"/>
<path id="malaita" fill="#444444" d="M1060.1,631.7l0.6,3.1l1.4,1.9l1.2-2.4L1060.1,631.7L1060.1,631.7z"/>
<path id="santa_ana" fill="#444444" d="M1061.7,638.7l-0.5,0.9l1.7,2.2l1.2,0.1l-0.7-2.9L1061.7,638.7L1061.7,638.7z"/>
<path id="rennell" fill="#444444" d="M1058,643l-1.8,0.8l1.5,2.1l1.3-0.7L1058,643L1058,643z"/>
<path id="espiritu_santo" fill="#444444" d="M1075.9,656.2l-1.2,1.7l0.5,1.9l0.6,0.4l1.1-1.5L1075.9,656.2L1075.9,656.2z"/>
<path id="malakula" fill="#444444" d="M1076.5,661.3l0.1,1.4l1.3,0.4l0.9-0.5l-0.9-1.5L1076.5,661.3L1076.5,661.3z"/>
<path id="efate" fill="#444444" d="M1078.4,673.4l-0.6,0.9l0.9,1l1.6-0.5L1078.4,673.4L1078.4,673.4z"/>
<path id="fiji" fill="#444444" d="M1103.6,671.3l-1.2,1.7l-0.1,1.9l1.4,1.5L1103.6,671.3L1103.6,671.3z"/>
<path id="palawan" fill="#444444" d="M944.4,556.5l-0.9,1.6l-0.5,2l-4.8,6.1l0.3,1.3l2-0.3l6.2-6.9L944.4,556.5L944.4,556.5z"/>
<path id="negros" fill="#444444" d="M952.1,554.2l-0.1,5l1.8,1.8l0.7,3.6l1.8,0.4l0.9-2.2l-1.4-1.1l-0.4-6.3L952.1,554.2
	L952.1,554.2z"/>
<path id="cebu" fill="#444444" d="M957.3,556.2l-0.1,4.4l1,1.7l1.8-2.1l-0.5-3.9L957.3,556.2L957.3,556.2z"/>
<path id="samar" fill="#444444" d="M958.4,552.3l1.8,2.4l0.9,2.3h1.6l-0.3-4l-1.8-1.3L958.4,552.3L958.4,552.3z"/>
<path id="path7462" fill="#444444" d="M962,561.3l0.4,2.9l-3.3,2.7l-2.8,0.3l-3,3.2l0.1,1.5l2.8-0.9l1.9-1.3l1.6,4.1l2.9,2l1.2-0.4
	l1-1.3l-2.3-2.3l1.3-1.1l1.5,1.3l1-1.7l-1-2.1l-0.2-4.7L962,561.3L962,561.3z"/>
<path id="luzon" fill="#444444" d="M946.4,532l-2.6,1.8l-0.3,5.8l4,7.8l1.3,1.1l1.7-1.2l3,0.5l0.6,2.6l2.2,0.2l1-1.4l-1.3-1.8
	l-1.6-1.5l-3.4-0.4l-1.8-3l2.1-3.2l0.2-2.8l-1.4-3.6L946.4,532L946.4,532z"/>
<path id="mindoro" fill="#444444" d="M947.7,549.2l0.8,2.7l1.3,0.9l1-1.3l-1.5-2.1L947.7,549.2L947.7,549.2z"/>
<path id="hainan" fill="#444444" d="M914.8,529.2l-2.4,0.7l-1.7,2.1l1.4,2.8l2.1,0.2l2.4-2.1l0.6-2.8L914.8,529.2L914.8,529.2z"/>
<path id="taiwan" fill="#444444" d="M942.5,507.3l-3.5,2.7l-0.2,5.2l3.1,3.6l0.8-0.7L942.5,507.3L942.5,507.3z"/>
<path id="kyushu" fill="#444444" d="M958.2,475.4l-1.6,1.6l0.7,2.3l1.4,0.1l1,5l1.2,1.3l2-1.8l0.9-3.3l-2.5-3.6L958.2,475.4
	L958.2,475.4z"/>
<path id="shikoku" fill="#444444" d="M967,472.1l-2.8,2.6l-0.1,3l0.7,0.9l3.7-3.2l-0.3-3.2L967,472.1L967,472.1z"/>
<path id="honshu" fill="#444444" d="M963.2,466l-4.9,5.6l0.9,1.3l2.4,0.3l4.5-3.5l3.2-0.6l2.9,3.4l2.2-0.8l0.9-3.3l4.1-0.1l4-4.8
	l-2.1-8l-1-4.2l2.1-1.7l-4.8-7.2l-1.2,0.1l-2.6,2.9v2.4l1.2,1.4l0.4,6.4l-3,3.7l-1.7-1.1l-1.3,3l-0.3,2.8l1,1.6l-0.7,1.3l-2.2-1.8
	h-1.5l-1.3,0.8L963.2,466L963.2,466z"/>
<path id="hokkaido" fill="#444444" d="M971.4,422.4l-1.5,1.4l0.8,2.9l1.3,1.4l-0.1,4.4l-1.7,0.7l-1.3,3l3.9,5.4l2.6-0.9l0.5-1.4
	l-2.8-2.5l1.7-2.2l1.8,0.3l1.4,1.5l0.1-3.2l3.9-3.2l2.2-0.6l-1.8-3.1l-0.9-1.4l-1.4,1l-1.2,1.5l-2.7-0.6l-2.8-1.8L971.4,422.4
	L971.4,422.4z"/>
<path id="iturup" fill="#444444" d="M985.9,419.5l-2.7,3.8l0.2,1.8l1.3-0.6l3.2-3.9L985.9,419.5L985.9,419.5z"/>
<path id="urup" fill="#444444" d="M989.4,414l-1,2.6l0.1,1.7l1.6-1.1l1.5-3.1V413L989.4,414L989.4,414z"/>
<path id="paramushir" fill="#444444" d="M995,391l-1.2,1.5l0.1,2.4l1.2-0.1l1.9-3.4L995,391L995,391z"/>
<path id="onekotan" fill="#444444" d="M992.8,396.9v4.2l1.3,0.5l1-1.5v-3.3L992.8,396.9L992.8,396.9z"/>
<path id="sakhalin" fill="#444444" d="M953.6,381.6l-0.1,6.2l7.7,11.9l2.8,10.4l4.9,9.3l1.9,0.7l1.6-1.3l0.8-2.2l-7-7.6l0.2-4
	l1.5-0.7l0.4-2.3l-13.7-19.4L953.6,381.6L953.6,381.6z"/>
<path id="bering_island" fill="#444444" d="M1007.6,362.4l-1.9,0.2l1.2,1.6l2.4,1.6l0.7-0.8L1007.6,362.4L1007.6,362.4z"/>
<path id="medny" fill="#444444" d="M1011.3,363.6l0.3,1.6l3,0.9l0.3-1.2L1011.3,363.6L1011.3,363.6z"/>
<path id="attu" fill="#444444" d="M1027.5,369.9l1.3,2.2l2.1-0.1l0.4-1.5L1027.5,369.9L1027.5,369.9z"/>
<path id="amchitka" fill="#444444" d="M1048.5,373.4l1.7,3.1l1.3-1.4V373L1048.5,373.4L1048.5,373.4z"/>
<path id="adak" fill="#444444" d="M1062.8,363.6l-2.4,3.1l0.6,1.4l2.9-1.8l0.3-1.8L1062.8,363.6L1062.8,363.6z"/>
<path id="umnak" fill="#444444" d="M1074.6,353.9l-2.1,2.5l2.2,0.8L1074.6,353.9L1074.6,353.9z"/>
<path id="unalaska" fill="#444444" d="M1077.5,349.7l-1.4,2.2l0.1,2.2l1.9-0.8L1077.5,349.7L1077.5,349.7z"/>
<path id="st._lawrence_island" fill="#444444" d="M1036.3,297.4l-2.4,1.5l-0.6,2l1.1,1.3l2.5-0.8l2.5,0.8l1.4,0.4l-0.1-4.6
	L1036.3,297.4L1036.3,297.4z"/>
<path id="st._lawrence_island_west" fill="#444444" d="M224.2,312.4l3.5,6.5l2.2-0.5v-2.2L224.2,312.4L224.2,312.4z"/>
<path id="alaska" fill="#444444" d="M1038.4,276.5l-4.2,7.6l8.1,5.1l9.1-7.6l5.5,9.2l-5.7,1.2l-2.3,5.9l12.7,17.2l7.7,1.3l11,2.2
	l1.4-4l3.8,1.5l0.7,16.8l-7.1,11.9l3.4,0.8l9-18.9l2.7-14.2l-5.5-2.6l-0.9-19l4.3,0.8l0,11.4l4.7,4.1l2.7-9.9l-2.2-5.9l6.6,3.1
	l0.7-35l-75.8,0.1l-4.4,3.4l0.6,6.8l13.4,1.8l10.3-2.4l-3.7,6.9L1038.4,276.5L1038.4,276.5z"/>
<path id="chukotka" fill="#444444" d="M156.2,314l14,1.6l2.3,4.8l11.2-6.5l18.7-2.6l1.3-9.7l9.3-3.4l6.1-5.8v7.8l6.2,8.5l13-8.2
	l-6.2-7.1l-7.8-21l-9.4-10.7l-6.6-0.5l-0.3,5.8l-5.4,2.8l-1.7-3.4l3.2-6.9l-47.9,0.1L156.2,314L156.2,314z"/>
<path id="wrangel-w" fill="#444444" d="M233.5,262.3l-3.9,3.5l1.2,2.6l2.1-1.4l1.2,1.3l3.9-1.4l-0.1-2.2L233.5,262.3L233.5,262.3z"
	/>
<path id="unalaska_west" fill="#444444" d="M204.7,369.3l-0.2,3l2.2-0.5v-1.3L204.7,369.3L204.7,369.3z"/>
<path id="umnak_west" fill="#444444" d="M201.3,370.6l-4.3,2.2l0.7,2.3l1.7-1.3l3.3-1.5L201.3,370.6L201.3,370.6z"/>
<path id="another_aleutian_west" fill="#444444" d="M183.4,373.4l-3-0.7l-0.5,1.3l0.3,2.5L183.4,373.4L183.4,373.4z"/>
<path id="adak_west" fill="#444444" d="M177.1,373.3l-2.8-1.2l-1,1.8l1.8,1.8L177.1,373.3L177.1,373.3z"/>
<path id="amchitka_west" fill="#444444" d="M167.3,370.6l-1.3-1.8l-1.3,0.5v2.5l1.5,1L167.3,370.6L167.3,370.6z"/>
<path id="attu_west" fill="#444444" d="M156.5,358.7l1.7,1.2l-0.5,1.3h-1.2V358.7L156.5,358.7z"/>
<path id="kerguelen" fill="#444444" d="M777.8,758.6l-0.2,4.3l5.9,1.4l1.4-3.5l-2.1,0.6L780,762l-0.8-3.2L777.8,758.6L777.8,758.6z"
	/>
<path id="mauritius" fill="#444444" d="M768,658l-1.5,2l0.3,2.2l3.2-2.6L768,658L768,658z"/>
<path id="reunion" fill="#444444" d="M762.4,661.4l-2.3,0.2l-0.2,2l1.5,0.3l2.3-1.1L762.4,661.4L762.4,661.4z"/>
<path id="madagascar" fill="#444444" d="M747.3,631.9l-2.1,5.1l-3.7,6.4l-6.4,0.5l-2.7,3.2l0.5,9.8l-4,4.6l0.5,7.8l3.3,3.8l4-0.5
	l4-2.9l-0.9-4.6l9.1-15.8l-1.8-2l1.8-3.8l2,0.6l0.6-1.5l-1.8-7.8l-1.1-3.2L747.3,631.9L747.3,631.9z"/>
<path id="grande_comore" fill="#444444" d="M732.7,630.2l0.5,1.5l2,0.3l0.8-2L732.7,630.2L732.7,630.2z"/>
<path id="mayotte" fill="#444444" d="M735.6,633.3l0.8,1.7h1.2l0.6-2.2L735.6,633.3L735.6,633.3z"/>
<path id="aldabra" fill="#444444" d="M757.3,617.3l-0.6,1.2l1.7,1.4l1.2-1.4L757.3,617.3L757.3,617.3z"/>
<path id="praslin" fill="#444444" d="M765.9,608.1l-1.8,1.2l1.4,2.2h1.8L765.9,608.1L765.9,608.1z"/>
<path id="mahe" fill="#444444" d="M766.6,613.5l-1.2,1.4l0.9,1.4l1.7,0.3l0.2-2.9L766.6,613.5L766.6,613.5z"/>
<path id="male" fill="#444444" d="M811.4,579.8l0.3,2.6l1.7,0.6l0.3-2.3L811.4,579.8L811.4,579.8z"/>
<path id="maldive" fill="#444444" d="M813.5,585.3l-0.2,3.2l1.2,0.6l1.1-2.2L813.5,585.3L813.5,585.3z"/>
<path id="gan" fill="#444444" d="M813.8,591.6l-1.1,1.1l1.2,1.1l1.5-1.1L813.8,591.6L813.8,591.6z"/>
<path id="flores_1_" fill="#444444" d="M527.6,476l-1.4,1.4l2.4,1.4l0.3-1.9L527.6,476L527.6,476z"/>
<path id="terceira" fill="#444444" d="M535,475.2l-1.6,1.1l1.4,1.1l2.2-0.6L535,475.2L535,475.2z"/>
<path id="pico" fill="#444444" d="M536,479l-0.8,2.2l1.1,1.4l1.4-1.1L536,479L536,479z"/>
<path id="sao_miguel" fill="#444444" d="M542.6,483.4l-0.5,1.4l0.8,0.8l2.2-1.4L542.6,483.4L542.6,483.4z"/>
<path id="madeira" fill="#444444" d="M563.2,495.4l-1.1,1.4l1.1,1.4l1.6-0.8L563.2,495.4L563.2,495.4z"/>
<path id="lanzarote" fill="#444444" d="M570.6,512.7l-1.8,1l0.8,0.8L570.6,512.7L570.6,512.7z"/>
<path id="gran_canaria" fill="#444444" d="M564.5,512.9l-2.2,0.5l1.1,1.6h1.6L564.5,512.9L564.5,512.9z"/>
<path id="tenerife" fill="#444444" d="M559.4,511.3l-1.4,1.4l1.9,1.6l1.1-2.5L559.4,511.3L559.4,511.3z"/>
<path id="santo_antao" fill="#444444" d="M542.6,549.5l-1.9,1.1l1.4,1.1l1.6-0.8L542.6,549.5L542.6,549.5z"/>
<path id="boa_vista" fill="#444444" d="M547.2,551.7l-1.2,1.1l0.9,1.6l2.1-0.9L547.2,551.7L547.2,551.7z"/>
<path id="santiago" fill="#444444" d="M544.5,554.8l-1.6,1l1.7,2.3l1.3-0.7L544.5,554.8L544.5,554.8z"/>
<path id="path13641" fill="#444444" d="M165,507.7l-0.1,2.3l2,1.4l1.2-1.1L165,507.7L165,507.7z"/>
<path id="path13643" fill="#444444" d="M170.3,511.1l-1.9,1.4l1.6,2l1.9-1.6L170.3,511.1L170.3,511.1z"/>
<path id="path13645" fill="#444444" d="M174.1,514.4l-1.6,2.2l0.5,1.4l2.3-1.1L174.1,514.4L174.1,514.4z"/>
<path id="hawaii" fill="#444444" d="M176.8,518.7l-0.9,5.5l0.9,2l3.1-1l1.6-2.7l-3.4-3.1L176.8,518.7L176.8,518.7z"/>
<path id="raiatea" fill="#444444" d="M182.3,661.7l-1.9-0.1l-0.1,1.8l1.5,1l1.8-1.1L182.3,661.7L182.3,661.7z"/>
<path id="tahiti" fill="#444444" d="M188.8,663.6l-2.7,1.8l2,2.5l1.8-0.4l0.9-1.2L188.8,663.6L188.8,663.6z"/>
<path id="guadeloupe" fill="#444444" d="M431.6,542.4l-1.5,0.6l0.5,1.3l1.8-1.1l-0.4-0.4L431.6,542.4L431.6,542.4z"/>
<path id="dominica" fill="#444444" d="M434.1,543.9l-0.9,1.9l1.1,1.4l1.3-1.2L434.1,543.9L434.1,543.9z"/>
<path id="martinique" fill="#444444" d="M437.1,549l-1.1,1l0.8,1.6l1.5-0.4L437.1,549L437.1,549z"/>
<path id="st._lucia" fill="#444444" d="M437,553l-0.7,1.5l1.1,1.2l1.5-0.8L437,553L437,553z"/>
<path id="st._vincent" fill="#444444" d="M437.1,556.8l-1.2,0.9l1,1.8l1.6-0.9L437.1,556.8L437.1,556.8z"/>
<path id="grenada" fill="#444444" d="M435.6,560.3l-1.1,1.1l0.4,0.7h1.4l0.4-1.2L435.6,560.3L435.6,560.3z"/>
<path id="trinidad" fill="#444444" d="M437.2,563.8l-1.1,1l-1.1,0.2v1.4l2.1,2l0.9-1.4l0.5-1.6l-0.2-1.3L437.2,563.8L437.2,563.8z"
	/>
<path id="puerto_rico" fill="#444444" d="M426,540.1l-2.6-0.9l-2.1,1.3l1.1,1.2l3.6,0.5L426,540.1L426,540.1z"/>
<path id="haiti-dominican_border" fill="#444444" d="M405.9,534.4l-1.7,1.7l1.9,0.8l0.3,2.4l-4.2,0.4l0.4,2.3l1.2,0.1l0.7-1.1
	l4.9,0.2l0.9,1.7l1.1-1.3l3.3-0.9l2.9,0.6l0.3-1.8l-5.3-3.5l-3.4-1.3L405.9,534.4L405.9,534.4z"/>
<path id="domincan_republic" fill="#444444" d="M418.1,539.4l-5.3-3.5l-2.5-0.8l-0.8,6l0.9,1.7l1.1-1.3l3.4-0.9l2.9,0.6L418.1,539.4
	L418.1,539.4z"/>
<path id="haiti" fill="#444444" d="M405.9,534.4l3.4,0.4l-0.4,4.2l-0.3,2.2l-4-0.2l-0.7,1.1l-1.2-0.1l-0.4-2.3l4.2-0.3l-0.3-2.4
	l-1.9-0.8L405.9,534.4L405.9,534.4z"/>
<path id="falklands_west" d="M463,767.2l-2.6-0.3l-2.6,1.8l1.9,2.1L463,767.2L463,767.2z"/>
<path id="falklands_east" d="M465.6,765.9l-0.9,2.8l-2.5,2.2l0.1,0.7l4.2-1.6l1.8-2.2L465.6,765.9L465.6,765.9z"/>
<path id="iceland" fill="#444444" d="M561.4,376.3l-2-1.1l-2.6,1.7l-2.3,2.1l0.1,1.2l2.9,0.4l-0.2,2.1l-1,1.1l0.3,0.7l2.9,0.2v3.4
	l4.2,0.7l2.5,1.4l2.8,0.1l4.8-2.4l3.7-4.9l0.1-3.3l-2.3-1.9l-1.9-1.6l-0.9,0.6l-1.3,1.7l-1.5-0.2l-1.5-1.6l-1.9,0.2l-2.8,2.3
	l-1.7,1.8l-0.9-0.8l-0.1-2l0.9-0.6L561.4,376.3L561.4,376.3z"/>
<path id="spitsbergen" fill="#444444" d="M643.3,313l-1.7-1.7l-3.7,1.8h-6.7l-1.1,3.9l3.8,3.3l1.6-0.2l2.4-4l2,1.4l-1.4,2.8
	l-0.7,4.2l1.7,2.6l3.5-5.9l4.6-5.6l-1.8-1.5L643.3,313L643.3,313z"/>
<path id="nordaustlandet" fill="#444444" d="M645.3,305.8l-3,2.7l1.8,2.7h3.2l1.3,1.8l3.9,2l4.5-2.6l3.1-2.6l-1.1-2.1l-3.1-1.8
	l-2.2,2l-1.5-1.9l-1.2,0.1l-1.5,3.3l-2.2-2.3l-0.2-1.5L645.3,305.8L645.3,305.8z"/>
<path id="edgeoya" fill="#444444" d="M652,318.1l-2.4,2.1l-2,1.5l0.9,1.7l1.9,0.6l3.1-1.4l1.4-1.8l-1.3-2.1L652,318.1L652,318.1z"/>
<path id="prince_george" fill="#444444" d="M702.8,297.8l1.7,0.7l-1.2,2.1v3l-2.6,1.6H698l-1.5-1.9l0.2-2.1l1.2-1.6h2.4L702.8,297.8
	L702.8,297.8z"/>
<path id="salisbury" fill="#444444" d="M709.4,295.9v2.1l1.7,1.4l2.4-0.2l2.1-1.9v-1.4h-1.9l-1.5,0.5l-1.2-1.4L709.4,295.9
	L709.4,295.9z"/>
<path id="wilczek" fill="#444444" d="M719.2,296.1l1.2,2.6l2.4,0.2l1.7-0.7l-0.9-2.4l-2.2-0.5L719.2,296.1L719.2,296.1z"/>
<path id="bell" fill="#444444" d="M729,292.6l-1.9-0.4l-1.7,1.7l0.9,1.6l0.5,2.4l2.2-1.7l0.5-1.9L729,292.6L729,292.6z"/>
<path id="novaya_zemlya_north" fill="#444444" d="M739.5,311l-0.5,2.4l-4,3.5l-8.4,1.9l-6.9,11.4l-1.2,3.3l6.9,1.7l1-4.2l2.1-6.4
	l5.3-2.8l4.5-3.5l3.3-1.4h1.7v-4.7L739.5,311L739.5,311z"/>
<path id="novaya_zemlya_south" fill="#444444" d="M717.3,336.3l4.7,0.5l1.5,5.4l4,4.2l-1.4,2.8h-2.4l-2.2-2.6l-5-0.2l-2.1-2.8v-1.9
	l3.1-0.9L717.3,336.3L717.3,336.3z"/>
<path id="komsomolets" fill="#444444" d="M790,277.1l-2.2-1.4h-2.6l-0.5,1.6l-2.8,1.6l-2.1,0.7l-0.3,2.1l4.8,0.4L790,277.1
	L790,277.1z"/>
<path id="october" fill="#444444" d="M795.3,277.7l-1.2,2.6l-2.4-0.2l-3.8,2.8l-1,3.5h2.4l1.4-2.3l3.3,2.4l3.1-1.4l2.2-1.9l-0.9-3
	l-1.2-2.1L795.3,277.7L795.3,277.7z"/>
<path id="bolshevik" fill="#444444" d="M800.3,279.6l1.2,4.9l1.9,4.5l2.1-3.6l4-0.9v-2.6l-2.6-1.9L800.3,279.6L800.3,279.6z"/>
<path id="kotelny" fill="#444444" d="M894.8,271.8l2.7,2.3l1.9-0.8l0.6-3.2l-3.9-2.7l-2.6,1.7l-6.3,0.6v2.8l-6.6,0.1v4.6l7.7,5.8
	l2-1.5l-0.5-4.1l4.9-1.2l-1-1.9l-1.8-1.8L894.8,271.8L894.8,271.8z"/>
<path id="novaya_sibir" fill="#444444" d="M901.9,269.1l1.8,3.4l7-0.8l1.9-2.5l-0.5-2.2l-1.9-0.8l-1.8,1.4l-5.2,1.1L901.9,269.1
	L901.9,269.1z"/>
<path id="lyakhovsky" fill="#444444" d="M901.5,282.3l-3.5-0.9l-2,2.1l-0.9,2.9l4.7-0.5l3.6-1.8L901.5,282.3L901.5,282.3z"/>
<path id="wrangel" fill="#444444" d="M991.7,262.8l-2.9-0.9l-3.4,1.2l-1.7,2.5l2.1,2.8l5.6-2.5l1.1-1.2L991.7,262.8L991.7,262.8z"/>
<path id="sri_lanka" fill="#444444" d="M835.5,567l0.3,2.7l0.3,2l-1.5,0.3l0.7,4.5l2.2,1.2l3.4-2l-1-4.7l0.3-1.7l-3.2-3L835.5,567
	L835.5,567z"/>
<path id="cuba" fill="#444444" d="M375.9,525.9v1.3l5.3,0.1l2.5-1.5l0.4,1.1l5.2,1.3l4.6,4.2l-1.1,1.5l0.2,1.7l3.9,1l3.9-1.8
	l1.7-1.8l-2.5-1.3l-13-7.6l-4.5-0.5L375.9,525.9L375.9,525.9z"/>
<path id="bimini" fill="#444444" d="M394.6,518.1l-1.3-0.4l-0.1,2.4l1.5,1.6l1.1-1.6L394.6,518.1L394.6,518.1z"/>
<path id="andros" fill="#444444" d="M397.1,521.9l-1.7,1l1.6,2.3l0.9-1.2L397.1,521.9L397.1,521.9z"/>
<path id="inagua" fill="#444444" d="M402.7,523.7l-1.8-0.1l0.2,1.2l1.3,2l1.2-1.3L402.7,523.7L402.7,523.7z"/>
<path id="eleuthera" fill="#444444" d="M401.9,521.3l-3-1.3l-0.6-3l1.2-0.5l1.2,2.3l1.2,0.9L401.9,521.3L401.9,521.3z"/>
<path id="grand_bahama" fill="#444444" d="M399,515.2l-1.6-0.4l-0.3-2l-1.6-0.6l1.1-1.1l1.9,0.7l1.4,0.9L399,515.2L399,515.2z"/>
<path id="jamaica" fill="#444444" d="M393.9,538.6l-3.5,0.9v1l2,1.2h2.1l1.4-1.6L393.9,538.6L393.9,538.6z"/>
<path id="irian_jaya" fill="#444444" d="M986.9,598.3l-4.2,0.5l-2.7,2l1.1,2.2l4.5,0.8v0.8l-2.9,2.3l1.4,4.9l1.4,0.1l1.2-4.8h2.2
	l0.9,4.7l10.8,9l0.3,7l3.7,4l1.7-0.1l0.4-24.7l-6.3-4.4l-5.9,4l-2.1,1.3l-3.5-2.2l-0.1-7.1L986.9,598.3L986.9,598.3z"/>
<path id="alaska_1_" fill="#444444" d="M248.1,303.9l-8.4,2l1.7,9.5l9.1,2.5l0.5,2l-13.6,4.2l-7.6,12.7l2.7,13.4l4.4,3l3.5-3.2l1,2
	l-4.2,5l-16.3,7.5l-10.4,2.5l-0.3,3.7l23.9-7l9.9-2.7l9.1-11.2l10.1-6.7l-5.2,8.7l5.7,0.8l9.6-4.2l1.7,7l6.7,1.5l6.9,6.7l0.5,5
	l-1,1.2l1.2,4.7h1.7l0.3-8h2l0.5,19.6l4.9-4.2l-3.5-20.4h-5.2l-5.7-7.2l27.9-47.3l-27.6-21.6l-30.8,6l-1.2,9.5l6.7,4l-2.5,6.5
	L248.1,303.9L248.1,303.9z"/>
<path id="galapagos" fill="#444444" d="M350,597.2l-0.6,2.8l-1.1,1.2l0.8,1.4l2-0.8l1-1.7l-0.6-1.8L350,597.2L350,597.2z"/>
<path id="banks" fill="#444444" d="M358.7,294.9l0.2,4l-8,8.3l2,6.7l5.8-1.6l3.3-4.9l8.4-3.1l6.9-0.4L372,298l-2.7,2l-2-0.7
	l-1.1-2.5l-2.4-2.5L358.7,294.9L358.7,294.9z"/>
<path id="prince_patrick" fill="#444444" d="M369.1,283l-1.8,3.1l8.6,3.1l3.1-4.7l1.3,3.1h2.2l4.2-4.7l-5.1-1.3l-2-1.6l-2.7,2.7
	L369.1,283L369.1,283z"/>
<path id="eglinton" fill="#444444" d="M384.2,289.3l-6.9,2.9v2.2l8.9,3.4l-2,2.2l1.3,2.9l5.5-2.5h4.7l2.2,3.6l3.8-3.8l-0.9-3.6
	l-3.1,1.1l-0.4-4.5l1.5-2.7h-1.5l-2.4,1.6l-1.1,0.9l0.7,3.1l-1.8,1.3l-2.7-0.2l-0.7-4L384.2,289.3L384.2,289.3z"/>
<path id="mackenzie_king" fill="#444444" d="M393.3,282.4l-0.7,2.2l4.2,2l3.1-1.8l-0.2-1.3L393.3,282.4L393.3,282.4z"/>
<path id="king_christian" fill="#444444" d="M396.6,278.6l-3.1,1.1l0.2,1.6l6.9-0.5l-0.2-1.6L396.6,278.6L396.6,278.6z"/>
<path id="ellef_ringnes" fill="#444444" d="M411.5,282.4l-0.4,1.6l-1.1,1.6v2.2l4.2-0.7l4.4,3.8h1.5v-3.8l-4.4-4.9L411.5,282.4
	L411.5,282.4z"/>
<path id="amund_ringnes" fill="#444444" d="M422.8,286.9l1.8,2l-1.5,2.7l1.1,2.9l4.9-2.7v-2l-2.9-3.4L422.8,286.9L422.8,286.9z"/>
<path id="axel_heiberg" fill="#444444" d="M429.2,281.7l0.2,3.6h6l1.5,1.3l-0.2,1.6l-5.3,0.7l3.8,5.1l5.1,0.9l7.1-3.1l-10.2-15.4
	l-3.1,2l0.2,2.7l-3.5-1.3L429.2,281.7L429.2,281.7z"/>
<path id="victoria" fill="#444444" d="M377.6,307l-8.4,2.2l-4.9,4.3l0.4,4.7l8.9,2.7l-2,4.5l-6.4-4l-1.8,3.3l4.2,2.9l-0.2,4.7
	l6.4,1.8l7.8-0.4l1.3-2.5l5.8,6.5l4-1.3l0.7-4.5l2.9,2l0.4-4.5l-3.6-2.2l0.2-14.1l-3.1-2.5l-3.3,4.5L377.6,307L377.6,307z"/>
<path id="prince_of_wales" fill="#444444" d="M404.6,316.8l-2.9-1.3l-1.5,2l3.1,4.9l0.2,4.7l6.6-4v-5.8l2.4-2.5l-2.4-1.8h-4
	L404.6,316.8L404.6,316.8z"/>
<path id="prescott" fill="#444444" d="M418.8,314.8l-4.7,3.8l1.1,4.7h2.9l1.3-2.5l2,2l2-0.2l5.3-4.5L418.8,314.8L418.8,314.8z"/>
<path id="cornwallis" fill="#444444" d="M418.4,307.4l-1.1,2.2l4.9,1.8l1.3-2L418.4,307.4L418.4,307.4z"/>
<path id="bathurst" fill="#444444" d="M415.5,298.9l-4.9,0.7l-2.9,2.7l5.3,0.2l-1.5,4l1.1,1.8l1.5-0.2l3.8-6L415.5,298.9
	L415.5,298.9z"/>
<path id="devon" fill="#444444" d="M423.9,297.4l-2.7,0.9l0.4,3.6l4.4,2.9l0.2,2.2l-1.3,1.3l0.7,4.5l17.1,5.6l4.7,1.6l4.7-4
	l-5.5-4.5l-5.1,1.3l-7.1-0.7l-2.7-2.7L431,302l-4.4-2.2L423.9,297.4L423.9,297.4z"/>
<path id="baffin" fill="#444444" d="M437.9,320.6l-4.9-0.4l-5.8,2.2l-3.1,4.2l0.9,11.6l9.5,0.4l9.1,4.5l6.4,7.4l4.9-0.2l-1.3,6.9
	l-4.4,7.4l-4.9,2.2l-3.5-0.7l-1.8-1.6l-2.7,3.6l1.1,3.6l3.8,0.2l4.7-2.2l4,10.3l10,6.5l6.9-8.7l-5.8-9.4l3.3-3.8l4.7,7.8l8.4-7.4
	l-1.5-3.4l-5.8,1.8l-4-10.9l3.8-6.3l-7.5-8l-4.2,2.9l-4-8.7l-8.4,1.1l-2.2-10.5l-6.9,4.7l-0.7,5.8h-3.8l0.4-5.1L437.9,320.6
	L437.9,320.6z"/>
<path id="bylot" fill="#444444" d="M447.9,324.6l-1.8,1.8l1.5,2.5l7.3,0.9l-4.7-4.9L447.9,324.6L447.9,324.6z"/>
<path id="ellesmere" fill="#444444" d="M440.8,299.4v2l-4.9,1.1l1.3,2.2l5.5,2.2l6.2,0.7l4.4,3.1l4.4-2.5l-3.1-3.1h4l2.4-2.7l6-0.9
	v-1.3l-3.3-2.2l0.4-2.5l9.3,1.6l13.8-5.4l-5.1-1.6l1.3-1.8h10.6l1.8-1.8l-21.5-7.6l-5.1-1.8l-5.5,4l-6.2-5.1l-3.3-0.2l-0.7,4.3
	l-4.2-3.8l-4.9,1.6l0.9,2.5l7.3,1.6l-0.4,3.6l4,2.5l9.8-2.5l0.2,3.4l-8,3.8l-4.9-3.8l-4.4,0.5l4.4,6.3l-2.2,1.1l-3.3-2.9l-2.4,1.6
	l2.2,4.2h3.8l-0.9,4l-3.1-0.4l-4-4.3L440.8,299.4L440.8,299.4z"/>
<path id="southhampton" fill="#444444" d="M421,360.9l-4.2,5.3l-0.3,5.9l3.7-2.1h4.5l3.2,2.9l2.9-2.4L421,360.9L421,360.9z"/>
<path id="newfoundland" fill="#444444" d="M472.5,430l-10.6,10.1l1.1,2.4l12.9,4.8l1.9-3.2l-1.1-5.3l-4.2,0.5l-2.4-2.7l4-4
	L472.5,430L472.5,430z"/>
<path id="canada" fill="#444444" d="M313.2,307.7l2,3l1,4l5,1.3l3.5-3.8l3,1.5l8.5,0.8l6-2.5l1,8.3h3.5v-3.5l3.5,0.3l8.7,10.3
	l5.7,3.5l-3,4.8l1.3,1.3L374,339l0.3,5l3,0.5l0.8-7.5l4.7-1.3l3.5,5.3l7.5,3.5l3.7,0.8l2.5-3l0.3-4.8l4.5-2.8l1.5,4l-4,7l0.5,3.5
	l2.2-3.5l4.5-4l0.3-5.3l-2.5-4l0.8-3.3l6-3l2.7,2l0.5,17.6l4.2-3.8l2.5,1.5l-3.5,6l4.5,1l6.5-10l5.5,5.8l-2.2,10.3l-5.5,3l-5.2-2.5
	l-9.5,2l1,3.3l-2.5,4l-7.7,1.8l-8.7,6.8l-7.7,10.3l-1,3.3l5.2,2l2,5l7.2,7.3l11.5,5l-2.5,11.5l-0.3,3.3l3,2l4-5.3l0.5-10l6.2-0.3
	l3-5.8l0.5-8.8l8-15.6l10,3.5l5.2,7.3L449,397l4,2.3l9.7-6.5l2.7,17.8l9,10.8l0.3,5.5l-10,2.5l-4.7,5l-10-2.3l-5-0.3l-8.7,6.8
	l5.2-1.3l6.5-1.3l1.3,1.5l-1.7,5.5l0.3,5l3,2l3-0.8l1.5-2.3h2l-3.2,6l-6.2,0.3l-2.7,4h-3.5l-1-3l5-5l-6,2l-0.3-8.5l-1.7-1l-5.2,2.3
	l-0.5,4.3h-12l-10.2,7l-13.7,4.5l-1.5-2l6.9-10.3l-3.9-3.8l-2.5-4.8l-5.1-3.9l-5.4-0.5l-9.8-6.8L304,416.4l-1.2-4.8l-6.5-6v-5l1-4.5
	l-0.5-2.5l-2.5-2.5l-0.5-4l6.5-4.5l-4-21.6l-5.5-0.3l-5-6.5L313.2,307.7L313.2,307.7z"/>
<path id="usa" fill="#444444" d="M303.8,417.3l-1,4l-3.5-2.3h-1.7l-1,4.3l-12.2,27.4l3.2,23.8l4,2l0.8,6.5h8.2l8,6l15.7,1.5l1.7,8
	l2.5,1.8l3.5-3.5l2.7,1.3l2.5,11.5l4.2,2.8l3.5-6.5l10.7-7.8l7,3.3l6,0.5l0.3-3.8l12.5,0.3l2.5,2.8l0.5,6.3l-1.5,3.5l1.7,6h3.7
	l3.7-5.8l-1.5-2.8l-1.5-6l2.2-6.8l10.2-8.8l7.7-2.3l-1-7.3l10.7-11.6l10.7-1.8l-1.7-6l10.5-6v-8l-1-0.5l-3.7,1.3l-0.5,4.9l-12.4,0.1
	l-9.7,6.5l-15.3,5l-2.4-3l6.9-10.5l-3.4-3.3l-2.3-4.4l-4.8-3.9l-5.3-0.4l-9.9-6.8L303.8,417.3L303.8,417.3z"/>
<path id="haida_gwaii" fill="#444444" d="M288.8,387.4l-1.7,3.3l0.6,2.3l1.1,0.7l-0.3,0.9l-1.2,0.3l0.3,3.4l1.3,1.3l1-1.1l-1.3-3.3
	l0.8-2.7l1.9-2.5l-1.4-2.3L288.8,387.4L288.8,387.4z"/>
<path id="vancouver" fill="#444444" d="M294.5,407l-1.5,0.6l2.8,3.3l0.7,3.9l2.8,3l2.4-0.4v-3.9l-2.9-1.8L294.5,407L294.5,407z"/>
<path id="guatemala" fill="#444444" d="M349.9,550.5l5.9,4.3l6-7.4l-1-1.5l-2-0.1v-4.3l-1.5-0.9l-4.6,1.4l1.8,4.1L349.9,550.5
	L349.9,550.5z"/>
<path id="honduras" fill="#444444" d="M362.5,547.8l9.2-0.4l2.7,3.3l-1.7-0.4l-3.3,0.1l-4.3,4l-1.8,4.1l-1.2-0.6l0-4.5l-2.7-1.8
	L362.5,547.8L362.5,547.8z"/>
<path id="el_salvador" fill="#444444" d="M356.6,555.3l4.7,2.3l-0.1-3.7l-2.4-1.5L356.6,555.3L356.6,555.3z"/>
<path id="nicaragua" fill="#444444" d="M372.7,551.1l2.2,0.4l0.1,4.5l-2.5,7.3l-6.9-0.7l-1.5-3.5l2-4.3l3.9-3.6L372.7,551.1
	L372.7,551.1z"/>
<path id="costa_rica" fill="#444444" d="M372.4,564l1.4,2.7l1.1,1.5l-1.5,4.5l-2.9-2l-4.7-4.3v-2.9L372.4,564L372.4,564z"/>
<path id="panama" fill="#444444" d="M375.6,568.6l-1.5,4.6l4.8,1.3l3,0.6l0.5-3.5l3.2-1.6l2.9,1.5l1.1,1.8l1.4-0.2l1.1-3.3l-3.6-1.5
	l-2.7-1.5l-2.7,1.8l-3.2,1.6l-3.3-1.3L375.6,568.6L375.6,568.6z"/>
<path id="colombia" d="M408.7,558.8l-2.1-0.2L393,569.8l-1.4,3.9l-1.9,0.2l0.8,8.7l-4.8,11.6l5.2,4.4l6.6,0.4l4.5,6.7l6.6,0.2
	l-0.2,5h2.5l2.7-9.1l-2.5-3.1l0.6-5.8l5.2-0.4l-0.6-13.5l-11.6-3.7l-2.7-7.3L408.7,558.8L408.7,558.8z"/>
<path id="venezuela" d="M405.5,564.9l0.4,2.6l3.3,1l0.7-4.8l3.4-3.5l3.4,4l7.9,2.2l6.7-1.4l4.5,5.6l3.4,2.2l-3.8,5.7l1.3,4.3
	l-2.1,2.7l-2.2,1.9l-4.8-2.4l-1.1,1.1v3.5l3.5,1.7l-2.6,2.8l-2.6,2.8l-3.4-0.3l-3.5-3.8l-0.7-14.3l-11.8-4l-2.1-6.3L405.5,564.9
	L405.5,564.9z"/>
<path id="guyana" d="M440,573.1l7.2,6.5l-2.9,3.3l-0.2,2l3.8,3.9l-0.1,3.7l-6.6,2.5l-3.9-5.3l0.8-6.4l-1.7-4.8L440,573.1L440,573.1z
	"/>
<path id="suriname" d="M448.1,580.1l2,1.9l3.2-2l2.9,0.1l-0.4,1.1l-1.2,2.5l-0.2,6.3l-5.8,2.3l0.3-4l-3.7-3.5l0.2-1.8L448.1,580.1
	L448.1,580.1z"/>
<path id="guyane" d="M457.1,580.8l5.9,3.6l-3.1,6.1l-1.1,1.4l-3.3-1.9l0.1-6.5L457.1,580.8L457.1,580.8z"/>
<path id="ecuador" d="M385.2,594.8l-4.7,2.9l-0.3,4.4l-1,1.4l3,2.9l-1.3,1.4l0.3,3.6l5.3,1.3l8.1-9.5l0-3.3l-3.9-0.3L385.2,594.8
	L385.2,594.8z"/>
<path id="peru" d="M380,608.5l-1.9,2l0.1,3.1l16.9,30.9l17.6,11.3l2.7-4.6l0.6-10l-1.4-6.3l-4.8-8.1l-2.8,0.9l-1.3,1.4l-5.7-6.5
	l1.4-7.7l6.6-4.3l-0.5-4l-6.7-0.3l-3.5-5.9l-1.9-0.6l0.1,3.5l-8.7,10.3l-6.5-1.6L380,608.5L380,608.5z"/>
<path id="bolivia" d="M413.7,631.8l8.2-3.6l2.7,0.3l1.8,7.6l12.5,4.2l2.1,6.4l5.2,0.6l2.2,5.5l-1.5,4.9l-8.4,0.7l-3.1,8l-6.6-0.1
	l-2.1-0.4l-3.8,3.7l-1.9-0.2l-6.5-15l1.8-2.7L417,641l-1.6-6.3L413.7,631.8L413.7,631.8z"/>
<path id="paraguay" d="M446.8,658.5l2.2,2.4l-0.3,5.1l6.3-0.4l4.8,6.1l-0.4,5.5l-3.1,4.7l-6.3,0.3l-0.3-2.6l1.8-4.3l-6.2-3.9h-5.2
	l-3.9-4.2l2.8-8.1L446.8,658.5L446.8,658.5z"/>
<path id="uruguay" d="M455.4,690.9l-2,2.2l0.9,11.8l6.4,1.9l8.2-8.2L455.4,690.9L455.4,690.9z"/>
<path id="argentina" d="M460.5,677.2l1.9,1.8l-7.4,11l-2.6,2.9l0.9,12.5l5.7,6.9l-4.8,8.3l-3.6,1.6h-4.1l1.2,6.5l-6.5,2.2l1.5,5.5
	l-3.9,12.4l4.8,3.9l-2.6,6.4l-4.4,6.9l2.3,4.8l-5.7,0.9l-4.7-5.7l-0.8-17.9l-7.2-30.3l2.2-10.6l-4.7-13.6l3.1-17.6l2.9-3.4l-0.7-2.6
	l3.7-3.3l8.2,0.6l4.6,4.9l5.3,0.1l5.4,3.3l-1.6,3.7l0.4,3.8l7.6-0.4L460.5,677.2L460.5,677.2z"/>
<path id="tierra_del_fuego_chile" d="M440,773.1l-4.3,9.4l7.4,0.8l0.1-6.3L440,773.1L440,773.1z"/>
<path id="tierra_del_fuego_argentina" d="M443.9,777.8l0.3,5.7l4.4-0.4l3.8-2.5l-6.3-1.3L443.9,777.8L443.9,777.8z"/>
<path id="chile" d="M438.6,771.6l-3.2,3.5l-0.4,4.2l-6.2-3.5l-6.6-9.5l-1.9-3.4l2.7-3.5l-0.3-4.4l-3.1-1.3l-2.5-1.8l0.5-2.5l3.2-0.9
	l0.6-14.3l-5-2.9l-3.3-74.6l0.9-1.5l6.4,14.8l2.1,0l0.7,2.4l-2.7,3.3l-3.1,17.9l4.5,13.8l-2.1,10.4l7.3,30.6l0.8,17.9l5.2,6
	L438.6,771.6L438.6,771.6z"/>
<path id="chiloe" d="M417.3,734.1l-1.3,2l0.6,3.4l1.3,0.1l0.6-4.3L417.3,734.1L417.3,734.1z"/>
<path id="brazil" d="M469.2,697.8l6.3-12l0.2-10.1l11.7-7.5h6.5l5.1-8.7l0.9-16.7l-2.1-4.5l12.4-11.3l0.5-12.5l-16.8-8.2l-20.3-6.3
	l-9.6-0.9l2.6-5.4l-0.7-8.2l-2.1-0.7l-3.1,6.1l-1.6,2l-4.2-1.8l-14,4.9l-4.7-5.9l0.8-6.1l-4.4,4.5l-4.9-2.6l-0.5,0.7l0,2.1l4.2,2.3
	l-6.3,6.6l-4,0l-4-4.1l-4.5,0.1l-0.6,4.9l2.6,3.2l-3.1,9.9l-3.6,0.3l-5.7,3.6l-1.4,7.1l5,5.3l0.9-1l3.5-0.9l3,5l8.5-3.7l3.3,0.2
	l2.3,8.1l12.2,3.9l2.1,6.4l5.2,0.6l2.5,6.1l-1.7,5.5l2.2,2.9l-0.3,4.3l5.8-0.5l5.4,6.8l-0.4,4.8l3.2,2.7l-7.6,11.5L469.2,697.8
	L469.2,697.8z"/>
<path id="belize" fill="#444444" d="M359.6,541.4l0,3.6h0.8l2.9-5.3h-1.9L359.6,541.4L359.6,541.4z"/>
<path id="russia" fill="#444444" d="M973,331.9l1.8,6.1l3.5,1l3.5-5.6l-2-3.8l0.8-3.3h5.3l-1.3,2.5l0.5,9.1l-7.5,18.7l0.8,4
	l-0.3,6.8l14.1,20.5l2.8,0.8l0.3-16.7l2.8-2.5l-3-6.6l2.5-2.8l-5.5-7.3l-3,0.3l-1-12.1l7.8-2l0.5-3.6l4-1l2.3,2l2.8-11.1l4.8-8.1
	l3.8-2l3.3,0.3v-3.8l-5.3-1l-7.3-6.1l3.5-4.1l-3-6.8l2.5-2.5l3,4.1l7.5,2.8l8.3,0.8l1-3.5l-4.3-4.3l4.8-6.6l-10.8-3.8l-2.8,5.6
	l-3.5-4.6l-19.8-6.8l-18.8,3.3l-2.8,1.5v1.5l4,2l-0.5,4.8l-7.3-3l-16.1,6.3l-2.8-5.8h-11.1l-5,5.3l-17.8-4l-16.3,3.3l-2,5.1l2.5,0.8
	l-0.3,3.8l-15.8,1.8l1,5.1l-14.6-2.5l3.5-6.6l-14.8-0.8l1.3,6.8l-4.8,2.3l-4-3.8l-16.3,2.8l-6.3,5.8l-0.3,3.5l-4,0.3l-0.5-4.1
	l12.8-11.1v-7.6l-8.3-2.3l-10.8,3.5l-4.5-4.6h-2l-2.5,5.1l2,2.3l-14.3,7.9l-12.3,9.4l-7.5,10.4v4.3l8,3.3l-4,3l-8.5-3l-3.5,3
	l-5.3-6.1l-1,2.3l5.8,18.2l1.5,0.5l4-2l2,1.5v3.3l-3.8-1.5l-2.3,1.8l1.5,3.3l-1.3,8.6l-7.8,0.8l-0.5-2.8l4.5-2.8l1-7.6l-5-6.6
	l-1.8-11.4l-8-1.3l-0.8,4l1.5,2l-3.3,2.8l1.3,7.6l4.8,2l1,5.6l-4.8-3l-12.3-2.3l-1.5,4l-9.8,3.5l-1.5-2.5l-12.8,7.1l-0.3,4.8l-5,0.8
	l1.5-3.5v-3.5l-5-1.8l-3.3,1.3l2.8,5.3l2,3.5v2.8l-3.8-0.8l-0.8-0.8l-3.8,4l2,3.5l-8.5-0.3l2.8,3.6l-0.8,1.5h-4.5l-3.3-2.3l-0.8-6.3
	l-5.3-2v-2.5l11.1,2.3l6,0.5l2.5-3.8l-2.3-4.1l-16.1-6.3l-5.5,1.4l-1.9,1.6l0.6,3.8l2.4,0.4l-0.5,5.9l7.3,17.1l-5.3,8.3l-0.4,1.9
	l2.7,1.9l-2.4,1.6l-1.6,0l0.3,7.4l2.2,3.1l0,3l2.8,0.3l4.3,1.6l4.6,6.3l0,1.7l-1.5,2.5l3.4-0.2l3.3,1l4.5,6.4l11.1,1l-0.5,7.6
	l-3.8,3.3l0.8,1.3l-3.8,4l-1,3.8l2.3,3.3l7.3,2.5l3-1.8l19.3,7.3l0.8-2l-4-3.8v-4.8l-2.5-0.8l0.5-4l4-4.8l-7.2-5.4l0.5-7.5l7.7-5.1
	l9,0.5l1.5,2.8l9.3,0.5l6.8-3.8l-3.5-3.8l0.8-7.1l17.6-8.6l13.5,6.1l4.5-4.1l13.3,12.7l10-1l3.5,3.5l9.5,1l6.3-8.6l8,3.5l4.3,0.8
	l4.3-3.8L847,418l3.3-5.1l9.3,3l2,4.1l4,0.3l2.5-1.8l6.8-0.3l0.8,1.8l7.8,0.5l5.3-5.6l10.8,1.3l3.3-1.3l1-6.1l-3.3-7.3l3.3-2.8h10.3
	l9.8,11.6l12.6,7.1h3.8l0.5-3l4.5-2.8l0.5,16.5l-4,0.3v4l2.3,2.8l-0.4,3.6l1.7,0.7l1-2.5l1.5,0.5l1,1l4.5-1l4.5-13.2l0.5-16.5
	l-5.8-13.2l-7.3-8.9l-3.5,0.5v2.8l-8.5-3.3l3.3-7.1l2.8-18.7l11.6-3.5l5.5-3.5h6l-1.5,2l1.5,2.5l5.3-5.6l3,0.3l-0.5-3.3l-4.8-1
	l3.3-11.9L973,331.9L973,331.9z"/>
<path id="china" fill="#444444" d="M825.4,429.1l-3.5,8.7l-4.8-0.3l-5,11l4.3,5.4l-8.8,12.1l-4.5-0.8l-3,3.8l0.8,2.3l3.5,0.3l1.8,4
	l3.5,0.8l10.8,13.9v7.1l5.3,3.3l5.8-1l7.3,4.3l8.8,2.5l4.3-0.5l4.8-0.5l10-6.6l3.3,0.5l1.3,3l2.8,0.8l3.8,5.6l-2.5,5.6l1.5,3.8
	l4.3,1.5l0.8,4.6l5,0.5l0.8-2.3l7.3-3.8l4.5,0.3l5.3,5.8l3.5-1.5l2.3,0.3l1,2.8l1.8,0.3l2.5-3.5l10-3.8l9-10.9l3-10.4l-0.3-6.8
	l-3.8-0.8l2.3-2.5l-0.5-4.1l-9.5-9.6v-4.8l2.8-3.5l2.8-1.3l0.3-2.8h-7l-1.3,3.8l-3.3-0.8l-4-4.3l2.5-6.6l3.5-3.8l3.3,0.3l-0.5,5.8
	l1.8,1.5l4.3-4.3l1.5-0.3l-0.5-3.3l4-4.8l3,0.3l1.8-5.6l2.1-1.1l0.2-3.5l-2-2.1l-0.2-5.5l3.8-0.3l-0.3-14.1l-2.7,1.6l-1,3.6l-4.5,0
	l-13.1-7.4l-9.4-11.4l-9.6-0.1l-2.4,2.1l3.1,7.1l-1.1,6.7l-3.9,1.6l-2.2-0.2l-0.2,6.6l2.3,0.5l4-1.8l5.3,2.5v2.5l-3.8,0.3l-3,6.6
	l-2.8,0.3l-9.8,12.9l-10.3,4.6l-7,0.5l-4.8-3.3l-6.8,3.6l-7.3-2.3l-1.8-4.8l-12.3-0.8l-6.5-10.6h-2.8l-2.2-4.9L825.4,429.1z"/>
<path id="mongolia" fill="#444444" d="M828.8,429.2l5.8-7.7l7,3.2l4.8,1.3l5.8-5.3l-4-2.9l2.6-3.7l7.8,2.7l2.7,4.4l4.9,0.1l2.5-1.9
	l5.2-0.2l1.1,1.9l8.7,0.4l5.5-5.6l7.6,0.8l-0.4,7.6l3.3,0.8l4.1-1.9l4.3,2.1l-0.1,1.1l-3.1,0.1l-3.3,6.9l-2.5,0.3l-9.9,12.9
	l-10.1,4.4l-6.3,0.5l-5.2-3.4l-6.7,3.6l-6.6-2.1l-1.9-4.8l-12.5-0.9l-6.4-10.9l-3.1-0.2L828.8,429.2L828.8,429.2z"/>
<path id="north_korea" fill="#444444" d="M933.3,453.3l1.8,0.8l0.6,6.4l3.7,0.2l3.4-4l-1.2-1.1l0.1-4.3l3.2-3.8l-1.6-2.9l1-1.2
	l0.6-3l-1.8-0.8l-1.6,0.8l-1.9,5.9l-3.1-0.3l-3.6,4.3L933.3,453.3L933.3,453.3z"/>
<path id="south_korea" fill="#444444" d="M943.3,457.2l6.2,5l1,4.9l-0.2,2.6l-3,3.4l-2.6,0.1l-3-6.4l-1.1-3l1.2-0.9l-0.3-1.3
	l-1.5-0.7L943.3,457.2L943.3,457.2z"/>
<path id="kazakhstan" fill="#444444" d="M731.7,447.6l4.1-1.8l4.6-0.2l0.3,7H738l-2,3.3l2.7,4.5l4,2.2l0.4,2.5l1.5-0.5l1.3-1.6
	l2.2,0.5l1.1,2.2h2.8v-2.9l-1.7-5.1l-0.8-4.1l5-2.2l6.8,1.1l4.3,4.3l9.6-0.9l5.4,7.6l6.3,0.3l1.7-2.9l2.2-0.5l0.3-3.2l3.3-0.2
	l1.7,2.1l1.7-4.1l15,2.1l2.5-3.3l-4.3-5.3l5.7-12.4l4.6,0.3l3.2-7.6l-6.3-0.6l-3.6-3.5l-10,1.2l-12.9-12.4l-4.5,4l-13.8-6.3
	l-16.9,8.3l-0.5,5.9l4,4.6l-7.7,4.4l-10-0.2l-2.1-3.1l-7.8-0.4l-7.4,4.8l-0.2,6.5L731.7,447.6L731.7,447.6z"/>
<path id="turkmenistan" fill="#444444" d="M748.8,466.6l-0.6,2.6h-4.2v3.6l4.5,2.9l-1.4,4v1.9l1.8,0.3l2.5-3.3l5.5-1.2l11.8,4.5
	l0.2,3.3l6.6,0.6l7.4-7.8l-0.9-2.5l-4.9-1.1l-13.8-9l-0.6-3.3h-5.2l-2.3,4.3h-2.3L748.8,466.6L748.8,466.6z"/>
<path id="uzbekistan" fill="#444444" d="M783.9,478.1l3.1,0.2V473l-2.9-1.7l4.9-6.2h2l2,2.3l5.2-2l-7.2-2.5l-0.3-1.5l-1.7,0.4
	l-1.7,2.9l-7.3-0.2l-5.3-7.6l-9.4,0.9l-4.5-4.4l-6.2-1l-4.5,1.8l2.6,8.7l0,2.9l1.9,0l2.3-4.4l6.2,0.1l0.9,3.4l13.3,8.8l5.1,1.2
	L783.9,478.1L783.9,478.1z"/>
<path id="tajikistan" fill="#444444" d="M785.2,470.8l4.1-5.1h1.5l0.5,1.1l-1.9,1.4v1.1l1.3,0.9l6,0.4l2-0.8l0.9,0.2l0.6,1.9
	l3.6,0.4l1.8,3.8l-0.5,1.1l-0.7,0.1l-0.7-1.4l-1.5-0.1l-2.7,0.4l-0.2,2.5l-2.7-0.2l0.1-3.2l-2-1.9l-3,2.5l0.1,1.6l-2.6,0.9h-1.5
	l0.1-5.6L785.2,470.8L785.2,470.8z"/>
<path id="kirgizstan" fill="#444444" d="M791.8,458.2l-0.3,2.5l0.3,1.6l8.7,2.9l-7.6,3.1l-0.9-0.7l-1.7,1.1l0.1,0.6l0.9,0.4l5.4,0.1
	l2.7-0.8l3.5-4.4l4.4,0.8l5.3-7.3l-14.1-1.9l-2,4.7l-2.5-2.6L791.8,458.2L791.8,458.2z"/>
<path id="afghanistan" fill="#444444" d="M769.1,486l1.6,12.5l4,0.9l0.4,2.2l-2.8,2.4l5.3,4.3l10.3-3.7l0.8-4.4l6.5-4l2.5-9.4l1.8-2
	l-1.9-3.3l6.3-3.9l-0.8-1.1l-2.9,0.2l-0.3,2.7l-3.9,0l-0.1-3.5l-1.3-1.5l-2.1,1.9l0.1,1.8l-3.2,1.2l-5.8-0.4l-7.6,8L769.1,486
	L769.1,486z"/>
<path id="pakistan" fill="#444444" d="M778.1,508.8l2.6,3.9l-0.3,2l-3.5,1.4l-0.3,3.2h4l1.4-1.1h7.5l6.8,6l0.9-2.9h5.1l0.1-3.6
	l-5.2-5l1.1-2.7l5.3-0.4l7.2-15l-4-3.1l-1.5-5.2l9.6-0.9l-5.7-8.1l-3-0.8l-1.2,1.5l-0.9,0.1l-5.7,3.6l1.9,3.1l-2.1,2.2l-2.6,9.6
	l-6.4,4.1l-0.9,4.5L778.1,508.8L778.1,508.8z"/>
<path id="india" fill="#444444" d="M826,572l4.6-2.2l2.7-9.8l-0.1-12.1l15.6-16.8v-4l3.2-1.3l-0.1-4.6l-3.5-6.7l2-3.6l4.3,4l5.6,0.3
	v2.2l-1.7,1.9l0.4,1l3,0.1l0.6,3.4h0.9l2.2-4l1.1-10.5l3.7-2.6l0.1-3.6l-1.5-2.9l-2.3-0.1l-9.2,6.1l0.6,3.9l-6.5,0l-2.3-2.8
	l-1.2,0.2l0.4,3.9l-14-1l-8.7-3.9l-0.5-4.8l-5.8-3.6l-0.1-7.4l-4-4.5l-9.1,0.9l1,4l4.5,3.6l-7.7,15.8l-5.2,0.4l-0.8,1.9l5.1,4.7
	l-0.3,4.8l-5.2-0.1l-0.6,2.4l4.3-0.2l0.1,1.9l-3.1,1.6l2,3.7l3.8,1.3l2.3-1.7l1.1-3.1l1.4-0.6l1.6,1.6l-0.5,4l-1.1,1.9l0.3,3.2
	L826,572L826,572z"/>
<path id="nepal" fill="#444444" d="M826.2,501.6l0.5,4.3l8.1,3.7l13,1l-0.5-3.1l-8.7-2.4l-7.3-4.4L826.2,501.6L826.2,501.6z"/>
<path id="bhutan" fill="#444444" d="M850.4,507.1l1.5,2.1l5.2,0l-0.5-2.9L850.4,507.1L850.4,507.1z"/>
<path id="bangladesh" fill="#444444" d="M850.6,512.1l-1.3,2.4l3.4,6.5l0.1,5l0.6,1.4l4,0.1l2.3-2.2l1.6,1l0.3,3.1l1.3-0.8l0.1-3.9
	l-1.1-0.1l-0.7-3.3l-2.8-0.1l-0.7-1.8l1.7-2.3l0-1.1h-4.9L850.6,512.1L850.6,512.1z"/>
<path id="burma" fill="#444444" d="M884.4,562.7l-2.8-4.4l2-2.8l-1.9-3.5l-1.8-0.3l-0.3-5.9l-2.7-5.2l-0.8,1.2l-1.8,3l-2.2,0.3
	l-1.1-1.5l-0.6-4l-1.7-3.2l-6.8-6.5l1.7-1.1l0.3-4.7l2.5-4.2l1.1-10.5l3.6-2.5l0.1-3.8l2.2,0.7l3.4,4.9l-2.5,5.4l1.7,4.3l4.2,1.7
	l0.8,4.7l5.7,0.9l-1.6,2.7l-7.2,2.8l-0.8,4.6l5.3,6.8l0.2,3.6l-1.2,1.2l0.1,1.1l3.9,5.8l0.1,6L884.4,562.7L884.4,562.7z"/>
<path id="thailand" fill="#444444" d="M885,529.5l3.2,4.2v5.1l1.1,0.6l5.2-2.5l1,0.3l6.2,7.1l-0.2,4.9l-2-0.3l-1.8-1.1l-1.3,0.1
	l-2.3,3.9l0.5,2.1l1.9,1l-0.1,2.4l-1.3,0.7l-4.6-3.2v-2.8l-1.9-0.1l-0.8,1.2l-0.4,12.6l3,5.4l5.3,5.1l-0.2,1.5l-2.8-0.1l-2.6-3.8
	h-2.7l-3.4-2.7l-1-2.8l1.5-2.4l0.5-2.1l1.6-2.8l-0.1-6.4l-3.9-5.6l-0.2-0.7l1.3-1.3l-0.3-4.4l-5.1-6.5l0.6-3.8L885,529.5L885,529.5z
	"/>
<path id="malaysia" fill="#444444" d="M887.7,574.5l2,4.5l0.5,5.9l2.7,4.2l6.5,3.9l2.5,0.2l-0.5-4.1l-2.1-5.2l-3.1-6.6l-0.3,1.2
	l-3.8-0.2l-2.7-3.9L887.7,574.5L887.7,574.5z"/>
<path id="cambodia" fill="#444444" d="M895.5,558.5l4.1,4.4l7.6-5.6l0.7-8.9l-3.9,2.7l-2-1.1l-2.8-0.4l-1.5-1.1l-0.8,0l-2,3.3
	l0.3,1.5l2.1,1.2l-0.3,3.1L895.5,558.5L895.5,558.5z"/>
<path id="laos" fill="#444444" d="M890.5,521.9l-2.4,1.2l-2,5.9l3.4,4.3l-0.6,4.7l0.6,0.2l5.6-2.7l7.5,8.4l-0.2,5.3l1.6,0.9l4-3.3
	l-0.3-2.6l-11.6-11l0.1-1.7l1.5-1l-1-2.8l-4.8-0.8L890.5,521.9L890.5,521.9z"/>
<path id="vietnam" fill="#444444" d="M900.1,563.5l1.2,1.9l0.2,2.1l3.1,0.3l3.8-5.1l3.6-1l1.9-5.2l-0.9-8.3l-3.7-5.1l-3.9-3.1
	l-5-8.5l3.5-5.9l-5.1-5.8l-4.1-0.2l-3.7,2l1.1,4.7l4.9,0.9l1.3,3.6l-1.7,1.1l0.1,0.9l11.5,11.2l0.5,3.3l-0.7,10.4L900.1,563.5
	L900.1,563.5z"/>
<path id="georgia" fill="#444444" d="M710.5,463.2l3.3,4.3l4.1,1.9l2.5,0l4.3-1.2l1.1-1.7l-12.8-4.8L710.5,463.2L710.5,463.2z"/>
<path id="armenia" fill="#444444" d="M724.7,468.9l4.8,6.3l-1.4,1.6l-3.4-0.6l-4.2-3.8l0.2-2.5L724.7,468.9L724.7,468.9z"/>
<path id="azerbaijan" fill="#444444" d="M726.4,466.7l-1,1.7l4.7,6.2l1.6-0.5l2.7,2.8l1.2-5l2.9,0.5l-0.1-1.4l-4.8-4.2l-0.9,2.5
	L726.4,466.7L726.4,466.7z"/>
<path id="iran" fill="#444444" d="M724.7,477l-1.2,1.3l0.1,2l1.5,2.1l5.4,5.9l-0.8,2.4h-0.9l-0.5,2.4l3,3.9l2.8,0.2l5.6,7.8l3.2,0.2
	l2.5,1.8l0.1,3.5l9.7,5.7h3.6l2.2-1.9l2.8-0.1l1.6,3.8l10.5,1.5l0.3-3.9l3.5-1.3l0.2-1.4l-2.8-3.8l-6.2-5l3.2-2.9l-0.2-1.3l-4.1-0.6
	l-1.7-13.7l-0.2-3.2l-11-4.2l-4.9,1.1l-2.7,3.4l-2.4-0.2l-0.7,0.6l-5.4-0.4l-6.8-5l-2.5-2.8l-1.2,0.3l-2.1,2.4L724.7,477L724.7,477z
	"/>
<path id="turkey" fill="#444444" d="M713.7,468.2l-2.2,2.4l-8.2-0.2l-4.9-3l-4.8-0.1l-5.5,3.9l-5.2,0.2l-0.5,3h-5.9l-2.3,2.1v1.2
	l1.4,1.2v1.3l-0.6,1.5l0.6,1.3l1.9-0.9l1.9,2l-0.5,1.4l-0.7,0.9l1,1.2l5.2,1.1l3.6-1.5v-2.2l1.8,0.3l4.2,2.5l4.6-0.7l2-1.9l1.3,0.5
	v2.1h1.8l1.5-2.9l13.4-1.4l5.8-0.7l-1.5-2l0-2.7l1.2-1.4l-4.3-3.4l0.2-3h-2.3L713.7,468.2L713.7,468.2z"/>
<path id="yemen" fill="#444444" d="M727,548.2l1.4,4.3v4.2l3.5,3.1l24.4-9.9l0.2-2.7l-3.9-7l-9.8,3.1l-5.6,5.5l-6.5-3.9L727,548.2
	L727,548.2z"/>
<path id="oman" fill="#444444" d="M753.4,539.8l7.4-4.3l1.3-6.3l-1.6-0.9l0.7-6.7l1.4-0.8l1.5,2.4l9,4.7v2.6l-10.9,16l-5,0.2
	L753.4,539.8L753.4,539.8z"/>
<path id="emirates" fill="#444444" d="M749,523.9l0.9,3.5l9.9,0.9l0.7-7.1l1.9-1l0.5-2.6l-3.1,0.9l-3.5,5.2L749,523.9L749,523.9z"/>
<path id="qatar" fill="#444444" d="M747.6,518l-0.5,4l1.5,1.2l1.4-0.1l0.5-5l-1.2-0.9L747.6,518L747.6,518z"/>
<path id="kuwait" fill="#444444" d="M738.3,506.2L736,505l-1.6,1.6l0.2,3.1l3.6,1.4L738.3,506.2L738.3,506.2z"/>
<path id="saudi" fill="#444444" d="M739,512.2l7,9.8l2.3,1.8l1,4.4l10.8,0.9l1.2,0.6l-1.2,5.4l-7.1,4.2l-10.4,3.1l-5.5,5.4l-6.6-3.8
	l-4,3.5l-5.5-9.1l-3.8-1.7l-1.4-2.1V530L702,513.3l-0.5-3h4l4.8-4.2l0.2-2.1l-1.4-1.4l2.8-2.3l5.9,0.4l10,8.4l5.9-0.3l0.4,1.5
	L739,512.2L739,512.2z"/>
<path id="syria" fill="#444444" d="M701.7,488.1l-0.3,2.5l2.8,1.2l-0.1,7l2.8-0.1l2.8-2.1l1.1-0.2l6.4-5.1l1.3-7.4l-12.8,1.3l-1.3,3
	L701.7,488.1L701.7,488.1z"/>
<path id="iraq" fill="#444444" d="M719.3,484l-1.6,7.7l-6.5,5.4l0.4,2.5l6.3,0.4l10,8.2l5.6-0.2l0.2-1.9l2.1-2.2l2.9,1.6l0.4-0.4
	l-5.6-7.4l-2.6-0.2l-3.5-4.5l0.7-3.3l1.1-0.1l0.4-1.5l-4.8-5L719.3,484L719.3,484z"/>
<path id="jordan" fill="#444444" d="M703.9,499.8l-2.5,8.6l-0.1,1.3h3.9l4.3-3.8l0.1-1.4l-1.8-1.8l3.2-2.6l-0.5-2.4l-0.9,0.2
	l-2.6,1.9L703.9,499.8L703.9,499.8z"/>
<path id="lebanon" fill="#444444" d="M701.2,491.4l0.1,2l-0.8,3l2.8,0.2l0.2-4.2L701.2,491.4L701.2,491.4z"/>
<path id="israel" fill="#444444" d="M700.3,497.1l-1.6,5l2,6l2.3-8.8v-1.9L700.3,497.1L700.3,497.1z"/>
<path id="cyprus" fill="#444444" d="M698.2,488.8l1.2,0.9l-3.8,3.6l-1.8-0.1l-1.3-0.9l0.2-1.8l2.8-0.2L698.2,488.8L698.2,488.8z"/>
<path id="norway" fill="#444444" d="M670.5,361.1l2-1.5l-0.2-1.7l-1.3-0.7l0.2-2h1.1v-1.1l-4.8-1.3l-7.2,0.7l-0.7,3.1l-1.6-0.5
	l-1.1-1.9l-3.5,0.2L653,358l-1.7,0.7l-0.9-1.8l-7.3,5.9l1.5,1.7l-2.8,1.3l-6.2,12.4l-2.2,1.5l0.2,1.1l2.2,1.1l-0.6,2.4l-3.7-0.2
	l-1.1-1.3l-2.4,2.8l-1.5,1.1l-0.4,2.6L625,390l-3.3,0.7l-1.7,5.2l1.1,8.5l1.3,3.9l1.5,1.5l3.3-0.2l4.8-4.6l1.8-3.1l0.5,4.6l3.1-5.5
	l0.2-15.5l2.5-1.6l0.8-8.6l7.7-11.1l3.7-1.3l1.6-2l5.5,1.3l2.8,1.7l0.9-4.6l4.6-2.8L670.5,361.1L670.5,361.1z"/>
<path id="britain" fill="#444444" d="M601.1,408.1l-1.8,2.8l0.7,1.1h4.2v1.8l-1.1,1.5l0.7,3.9l2.4,4.6l1.8,4.3l2.9,1.1l1.3,2.2
	l-0.2,2l-1.8,1.1l-0.2,0.9l1.3,0.7l-1.1,1.5l-2.6,1.1l-5-0.5l-7.7,3.5l-2.6-1.3l7.3-4.3l-0.9-0.5l-3.9-0.4l2.4-3.5l0.4-3l3.1-0.4
	l-0.5-5.7l-3.7-0.2l-1.1-1.3l0.2-4.3l-2.2,0.2l2.2-7.4l4-3L601.1,408.1L601.1,408.1z"/>
<path id="ulster" fill="#444444" d="M593.4,420.5l-3.3,0.4l-0.2,3l2.2,1.5l2.4-0.6l0.9-1.7L593.4,420.5L593.4,420.5z"/>
<path id="ireland" fill="#444444" d="M594.5,425.5l-0.9,6l-8.1,3H583l-1.8-1.3v-1.1l4-2.6l-1.1-2.2l0.2-3.1l3.5,0.2l1.6-3.8
	l-0.2,3.3l2.7,2.1L594.5,425.5L594.5,425.5z"/>
<path id="sweden" fill="#444444" d="M652.7,363.6l2,1.8h3.7l2,3.9l0.5,6.6l-5,3.5v3.5l-3.5,4.8l-2,0.2l-2.8,4.6l0.2,4.4l4.8,3.5
	l-0.4,2l-1.8,2.8l-2.8,2.4l0.2,7.9l-4.2,1.5l-1.5,3.1h-2l-1.1-5.5l-4.6-7l3.8-6.3l0.3-15.6l2.6-1.4l0.6-8.9l7.4-10.6L652.7,363.6
	L652.7,363.6z"/>
<path id="finland" fill="#444444" d="M661.8,375.9l2.1,0.9l1.3,2.4l-1.3,1.7l-6.4,7l-1.1,3.7l1.5,5.4l5,3.7l6.6-3.1l5.3-0.7l5-8
	l-3.7-8.7l-3.5-8.3l0.5-5.4l-2.2-0.4l-0.6-3.9l-3-4.8l-3.3,2.3l-1.3,5.3l-3.5-2.1l-4.8-1.2l-1.1,1.3l1.9,1.7l3.4-0.1l2.7,4.4
	L661.8,375.9L661.8,375.9z"/>
<path id="estonia_1_" fill="#444444" d="M673.1,410.4l-6.9-1.1l0.2,3.8l6.3,3.9l2.6-0.8l-0.2-2.9L673.1,410.4L673.1,410.4z"/>
<path id="hiumaa" fill="#444444" d="M661.8,406.6l-1.5-0.1l-0.9,0.9l0.6,1l1.5,0.1l0.8-1.2L661.8,406.6L661.8,406.6z"/>
<path id="saaremaa" fill="#444444" d="M661.6,410.7l-1.5-0.1l-2.7,3.2v1.5l0.9,0.4l1.8,0.1l2.9-2.4l0.4-0.8L661.6,410.7L661.6,410.7
	z"/>
<path id="lithuania" fill="#444444" d="M665.8,413.7l-2.1-0.1l-3,2.8h-2.5l0.2,3.5l-1.5,2.8l5.4,0l1.5-0.2l1.6,1.9l3.5-0.1l3.4-4.3
	l-0.2-2.6L665.8,413.7L665.8,413.7z"/>
<path id="belarus" fill="#444444" d="M665.7,425.3l1.5,2.5l-0.6,2l0.1,1.6l0.5,1.9l3.1-1.8l3.8,0.1l2.7,1.1h6.8l2-4.8l1.2-1.8v-1.2
	l-4.3-6l-3.8-1.5l-3.1-0.3l-2.7,0.9l0.1,2.7l-3.8,4.7L665.7,425.3L665.7,425.3z"/>
<path id="poland" fill="#444444" d="M666.5,433.8l0.9,1.6l0.2,1.7l-0.7,1.6l-1.6,3.1l-1.3,0.6l-1.8-0.8l-1,0l-2.5,1l-2.9-0.9
	l-4.7-3.3l-4.6-2.5l-1.9-2.8l-0.3-6.6l3.6-3.1l4.7-1.6l1.8-0.2l-0.7,1.4l0.5,0.6l7.9,0.1l1.7,0l2.8,4.3l-0.7,1.8l0.3,2.1
	L666.5,433.8L666.5,433.8z"/>
<path id="spain" fill="#444444" d="M603.4,464h-12.7l-2.6-1.2l-1.2,0.1l-1.5,3.1l0.5,3.2l4.9,0.4l0.6,2.1l-2.1,11.9l0.1,2.1l3.5,1.9
	l4,0.3l8-2l3.9-4.9l0.1-5l6.9-6.2l0.4-2.8l-6.3-0.1L603.4,464L603.4,464z"/>
<path id="portugal" fill="#444444" d="M585.9,470.2l-0.6,8.7l-1.8,1.6l0.2,1l1.2,2.1l-0.8,2.5l1.3,0.4l3.1-0.4l-0.2-2.5l2-11.6
	l-0.4-1.6L585.9,470.2L585.9,470.2z"/>
<path id="majorca" fill="#444444" d="M616.1,476.2l-1.6,0.5l0.3,1.4h2.3l1-1.1L616.1,476.2L616.1,476.2z"/>
<path id="sardinia" fill="#444444" d="M632.6,472.4l-2.6,1.3l0.3,5.2l2.1,0.4l1.6-1.5v-4.9L632.6,472.4L632.6,472.4z"/>
<path id="corsica" fill="#444444" d="M632.8,466l-1.9,2l-0.2,1.8l1.6,1l0.6-0.1l0.4-2.6L632.8,466L632.8,466z"/>
<path id="france" fill="#444444" d="M615.4,437.7l-2.2,0.5l-4.4,4.8l-1.3,0.1l-1.8-1.3l-1.2,0.3l-0.9,2.8l-6.5,0.2l0.2,1.4l4.4,2.9
	l5.1,4.1l-0.1,4.9l-2.7,4.8l5.9,2.9l6,0.2l1.9-2.1l3.8,0.1l1.1,1l3.8-0.3l2-2.5l-2.5-2.9l-0.2-1.9l0.5-2.1l-1.2-1.8l-2.1,0.6
	l-0.3-1.6l4.7-5.2v-3.1l-3.1-1.8l-1.6-0.3L615.4,437.7L615.4,437.7z"/>
<path id="netherlands" fill="#444444" d="M625.1,427.3l-4.5,2.2l1,0.9l0.1,2.2l-1-0.2l-1.1-1.6l-2.5,4l3.9,0.8l1.5,1.5l0.8,0
	l0.5-3.5l2.4-1L625.1,427.3L625.1,427.3z"/>
<path id="belgium" fill="#444444" d="M616.6,435.5l-0.6,1.6l6.9,4.5l2,0.5l0.1-2.1l-1.7-1.9h-1.1l-1.5-1.6L616.6,435.5L616.6,435.5z
	"/>
<path id="germany" fill="#444444" d="M626.1,426.9l3.6-0.6v-2.5l3-0.5l1.6,1.7l1.7,0.2l2.7-1.2l2.4,0.7l2.1,1.8l0.3,6.9l2.1,2.8
	l-2.8,0.4l-4.6,2.9l0.4,1l4.1,3.9l-0.3,1.9l-3.8,1.9l-3.6,0.1l-0.9,1.8h-1.8l-0.9-1.9l-3.2-0.8l-0.1-3.2l-2.7-1.8l0.3-2.3l-1.8-2.5
	l0.5-3.3l2.5-1.2L626.1,426.9L626.1,426.9z"/>
<path id="denmark" fill="#444444" d="M631.8,410.5l-4.2,4.6l-0.2,3l1.9,4.9l3-0.6l-0.4-4l2-2.3l0-1.8l-1.4-3.7L631.8,410.5
	L631.8,410.5z"/>
<path id="sjlland" fill="#444444" d="M636.4,418.6l-0.9,0l-1.2,1.1l0.1,1.8l2.9,0.1l0.1-2L636.4,418.6L636.4,418.6z"/>
<path id="gotland" fill="#444444" d="M653.5,409.2l-2.1,1.7l1.1,2.4l1.9-1.8L653.5,409.2L653.5,409.2z"/>
<path id="switzerland" fill="#444444" d="M627.9,448.4l-4.4,4.6l0.1,0.5l1.8-0.6l1.6,2.2l2.7-1l1.9,1.5l0.8-0.4l2.3-3.6l-0.6-0.6
	l-2.3-0.1l-1.1-2.3L627.9,448.4L627.9,448.4z"/>
<path id="czech" fill="#444444" d="M643.4,443.9h3h1.5l2.4,1.7l4.4-3.6l-4.3-3l-4.2-2l-2.9,0.5l-3.9,2.5L643.4,443.9L643.4,443.9z"
	/>
<path id="slovakia" fill="#444444" d="M650.8,446.1l0.7,0.6l0.1,1l7.6-0.2l5.6-2.4l-0.1-2.5l-1.1,0.5l-1.5-0.8l-1,0l-2.5,1l-3.4-0.8
	L650.8,446.1L650.8,446.1z"/>
<path id="austria" fill="#444444" d="M635.6,449.1l-0.7,1.4l0.6,1l2.3-0.5h2l2.2,1.8l4.6-0.8l3.4-2l0.9-1.3l-0.1-1.7l-3-2.3l-4.1,0
	l-0.3,2.3L639,449L635.6,449.1L635.6,449.1z"/>
<path id="hungary" fill="#444444" d="M651.7,448.6l-1.2,1.8l0.1,2.8l1.9,1l5.7,0.2l7.9-6.7l0-1.5l-0.9-0.4l-5.7,2.6L651.7,448.6
	L651.7,448.6z"/>
<path id="slovenia" fill="#444444" d="M649.8,451l-2.5,1.5l-4.7,1l0.9,2.7l3.3,0l3.1-2.6L649.8,451L649.8,451z"/>
<path id="croatia" fill="#444444" d="M650.6,454.2l-3.5,2.9h-3.6l-0.4,2.5l1.6,0.4l0.8-1.2l1.3,1.1l1,3.6l7.1,3.3l0.7-0.8l-7.2-7.4
	l0.7-1.3l6.8-0.3l0.7-2.2l-4.4,0.1L650.6,454.2L650.6,454.2z"/>
<path id="bosnia" fill="#444444" d="M649.8,457.9l-0.4,0.6l6.7,6.9l2.5-3.6l-0.1-1.4l-2.2-2.6L649.8,457.9L649.8,457.9z"/>
<path id="italy" fill="#444444" d="M627.3,456l-0.6,1.6l0.2,1.7l2.4,2.8l3.8-0.1l8.3,9.6l5.2,1.5l3.1,2.9l0.7,6.6l1.6-1l1.4-3.6
	l-0.3-2.6l2.4-0.2l0.4-1.5l-6.9-3.3l-6.5-6.4l-2.6-3.8l-0.6-3.6l3.3-0.8l-0.9-2.4l-2-1.7l-1.8-0.1l-2.4,0.7l-2.3,3.2l-1.4,0.9
	l-2.1-1.3L627.3,456L627.3,456z"/>
<path id="sicily" fill="#444444" d="M647.4,482l-1.5-0.8l-5,0.8l0.2,1.3l4.5,2.2l0.7,0.7l1.2,0.2L647.4,482L647.4,482z"/>
<path id="malta" fill="#444444" d="M647.6,489.5l-1.7,0.3l0.1,1.9l1.5,0.5l0.7-0.6L647.6,489.5L647.6,489.5z"/>
<path id="ukraine" fill="#444444" d="M670.6,432.1l-2.9,1.6l0.7,3.1l-2.7,5.7l0,2.5l1.3,0.8l8.1,0.4l2.3-1.9l2.4,0.8l3.5,4.6
	l-2.5,4.6l3,0.9l4-4.6l2.3,0.4l2.1,1.5l-1.8,2.4l2.5,3.9h2.7l1.4-2.6l2.8-0.6l0.1-2.1l-5.2-0.8l0.2-2.3h5.1l5.5-4.4l2.4-2.1l0.4-6.7
	l-10.8-1l-4.4-6.3l-3.1-1.1l-3.7,0.2l-1.7,4.1l-7.6,0.1l-2.5-1.1L670.6,432.1L670.6,432.1z"/>
<path id="moldova" fill="#444444" d="M675.8,446.7l3.1,4.8l-0.3,2.7l1.1,0.1l2.6-4.4l-3.2-3.9l-1.8-0.7L675.8,446.7L675.8,446.7z"/>
<path id="romania" fill="#444444" d="M667.2,446.6l-0.3,1.5l-5.8,4.8l4.8,7.1l3.1,2.2h5.6l1.8-1.5l2.5-0.3l1.8,1.1l3.3-3.7l-0.6-1.9
	l-3.3-0.9l-2.3-0.1l0.1-3.2l-3-4.7L667.2,446.6L667.2,446.6z"/>
<path id="serbia_and_montenegro" fill="#444444" d="M660.5,453.5l-2,1.5h-1l-0.7,2.1l2.4,2.8l0.2,2.2l-3,4.2l0.4,1.3l1.7,0.3
	l1.4-1.9l0.7-0.1l1.3,1.2l3.8-1.2l-0.3-5.5L660.5,453.5L660.5,453.5z"/>
<path id="bulgaria" fill="#444444" d="M666.4,461.4l0.2,5l1.7,3.5l6.3,0.1l2.8-2l2.8-1.1l-0.7-3.2l0.6-1.7l-1.4-0.7l-2,0.2l-1.5,1.5
	l-6.4,0L666.4,461.4L666.4,461.4z"/>
<path id="albania" fill="#444444" d="M659,468.8v4.6l1.3,2.5l1-0.1l1.6-3l-1-1.3l-0.4-3.3l-1.3-1.2L659,468.8L659,468.8z"/>
<path id="macedonia" fill="#444444" d="M665.9,467l-3.4,1.1l0.2,2.9l0.8,1l4-1.9L665.9,467L665.9,467z"/>
<path id="greece" fill="#444444" d="M661.7,476.6l-0.1,1.3l4.6,2.3l2.2,0.9l-1.2,1.2l-2.6,0.3l-0.4,1.2l0.9,2l2.9,1.5l1.3,0.1
	l0.2-3.4l1.9-2.3l-5.2-6.1l0.7-2.1l1.2-0.1l1.8,1.5l1.2-0.6l0.4-2.1l5.4,0l0.2-3.2l-2.3,1.6l-6.6-0.2l-4.3,2.2L661.7,476.6
	L661.7,476.6z"/>
<path id="thrace" fill="#444444" d="M678,468.7l-0.2,3.5l3.1-1l1.4-0.9l-0.4-1.5l-1.5-1.2L678,468.7L678,468.7z"/>
<path id="crete" fill="#444444" d="M671.8,489.6l1.6,0.1l0.7,1h2.4l1.6-0.6l0.5,0.6l-1,1.4l-4.6,0.2l-0.8-1.1l-0.9-0.5L671.8,489.6
	L671.8,489.6z"/>
</svg>
