<?xml version="1.0" encoding="utf-8"?>
<!-- Generator: Adobe Illustrator 18.1.1, SVG Export Plug-In . SVG Version: 6.00 Build 0)  -->
<svg version="1.1" id="svg2" xmlns:svg="http://www.w3.org/2000/svg"
	 xmlns="http://www.w3.org/2000/svg" xmlns:xlink="http://www.w3.org/1999/xlink" x="0px" y="0px" viewBox="305.3 820 89.3 151.5"
	 enable-background="new 305.3 820 89.3 151.5" xml:space="preserve">
<path id="falklands_west" d="M362.5,960.5l-1.8-0.2l-1.8,1.2l1.3,1.4L362.5,960.5L362.5,960.5z"/>
<path id="falklands_east" d="M364.2,959.6l-0.6,1.9L362,963l0.1,0.5l2.8-1.1l1.2-1.5L364.2,959.6L364.2,959.6z"/>
<path id="colombia" d="M325.9,820.1l-1.4-0.1l-9.2,7.5l-0.9,2.6l-1.3,0.1l0.5,5.9l-3.2,7.8l3.5,3l4.4,0.3l3,4.5l4.4,0.1l-0.1,3.4
	h1.7l1.8-6.1l-1.7-2.1l0.4-3.9l3.5-0.3l-0.4-9.1l-7.8-2.5l-1.8-4.9L325.9,820.1L325.9,820.1z"/>
<path id="venezuela" d="M323.8,824.2l0.3,1.8l2.2,0.7l0.5-3.2l2.3-2.4l2.3,2.7l5.3,1.5l4.5-0.9l3,3.8l2.3,1.5l-2.6,3.8l0.9,2.9
	l-1.4,1.8l-1.5,1.3l-3.2-1.6l-0.7,0.7v2.4l2.4,1.1l-1.8,1.9l-1.8,1.9l-2.3-0.2l-2.4-2.6l-0.5-9.6l-7.9-2.7l-1.4-4.2L323.8,824.2
	L323.8,824.2z"/>
<path id="guyana" d="M347,829.8l4.9,4.4l-2,2.2l-0.1,1.3l2.6,2.6l-0.1,2.5l-4.4,1.7l-2.6-3.6l0.5-4.3l-1.1-3.2L347,829.8L347,829.8z
	"/>
<path id="suriname" d="M352.5,834.5l1.3,1.3l2.2-1.3l2,0.1l-0.3,0.7l-0.8,1.7l-0.1,4.2l-3.9,1.5l0.2-2.7l-2.5-2.4l0.1-1.2
	L352.5,834.5L352.5,834.5z"/>
<path id="guyane" d="M358.5,834.9l4,2.4l-2.1,4.1l-0.7,0.9l-2.2-1.3l0.1-4.4L358.5,834.9L358.5,834.9z"/>
<path id="ecuador" d="M310.1,844.4l-3.2,2l-0.2,3l-0.7,0.9l2,2l-0.9,0.9l0.2,2.4l3.6,0.9l5.5-6.4v-2.2l-2.6-0.2L310.1,844.4
	L310.1,844.4z"/>
<path id="peru" d="M306.6,853.6l-1.3,1.3l0.1,2.1l11.4,20.8l11.9,7.6l1.8-3.1l0.4-6.7l-0.9-4.2l-3.2-5.5l-1.9,0.6l-0.9,0.9l-3.8-4.4
	l0.9-5.2l4.4-2.9l-0.3-2.7l-4.5-0.2l-2.4-4l-1.3-0.4l0.1,2.4l-5.9,6.9l-4.4-1.1L306.6,853.6L306.6,853.6z"/>
<path id="bolivia" d="M329.3,869.3l5.5-2.4l1.8,0.2l1.2,5.1l8.4,2.8l1.4,4.3l3.5,0.4l1.5,3.7l-1,3.3l-5.7,0.5l-2.1,5.4l-4.4-0.1
	l-1.4-0.3l-2.6,2.5l-1.3-0.1l-4.4-10.1l1.2-1.8l0.5-7.2l-1.1-4.2L329.3,869.3L329.3,869.3z"/>
<path id="paraguay" d="M351.6,887.3l1.5,1.6l-0.2,3.4l4.2-0.3l3.2,4.1l-0.3,3.7l-2.1,3.2l-4.2,0.2l-0.2-1.8l1.2-2.9l-4.2-2.6h-3.5
	l-2.6-2.8l1.9-5.5L351.6,887.3L351.6,887.3z"/>
<path id="uruguay" d="M357.4,909.1l-1.3,1.5l0.6,7.9l4.3,1.3l5.5-5.5L357.4,909.1L357.4,909.1z"/>
<path id="argentina" d="M360.8,899.9l1.3,1.2l-5,7.4l-1.8,2l0.6,8.4l3.8,4.6l-3.2,5.6l-2.4,1.1h-2.8l0.8,4.4l-4.4,1.5l1,3.7
	l-2.6,8.4l3.2,2.6l-1.8,4.3l-3,4.6l1.5,3.2l-3.8,0.6l-3.2-3.8l-0.5-12.1l-4.9-20.4l1.5-7.1l-3.2-9.2l2.1-11.9l2-2.3l-0.5-1.8
	l2.5-2.2l5.5,0.4l3.1,3.3l3.6,0.1l3.6,2.2l-1.1,2.5l0.3,2.6l5.1-0.3L360.8,899.9L360.8,899.9z"/>
<path id="tierra_del_fuego_chile" d="M347,964.5l-2.9,6.3l5,0.5l0.1-4.2L347,964.5L347,964.5z"/>
<path id="tierra_del_fuego_argentina" d="M349.6,967.7l0.2,3.8l3-0.3l2.6-1.7l-4.2-0.9L349.6,967.7L349.6,967.7z"/>
<path id="chile" d="M346.1,963.5l-2.2,2.4l-0.3,2.8l-4.2-2.4l-4.4-6.4l-1.3-2.3l1.8-2.4l-0.2-3l-2.1-0.9l-1.7-1.2l0.3-1.7l2.2-0.6
	l0.4-9.6l-3.4-2l-2.2-50.3l0.6-1l4.3,10h1.4l0.5,1.6l-1.8,2.2l-2.1,12.1l3,9.3l-1.4,7l4.9,20.6l0.5,12.1l3.5,4L346.1,963.5
	L346.1,963.5z"/>
<path id="chiloe" d="M331.7,938.2l-0.9,1.3l0.4,2.3l0.9,0.1l0.4-2.9L331.7,938.2L331.7,938.2z"/>
<path id="brazil" d="M366.7,913.8l4.2-8.1l0.1-6.8l7.9-5.1h4.4l3.4-5.9l0.6-11.3l-1.4-3l8.4-7.6l0.3-8.4l-11.3-5.5l-13.7-4.2
	l-6.5-0.6l1.8-3.6l-0.5-5.5l-1.4-0.5l-2.1,4.1l-1.1,1.3l-2.8-1.2l-9.4,3.3l-3.2-4l0.5-4.1l-3,3l-3.3-1.8l-0.3,0.5v1.4l2.8,1.5
	l-4.2,4.4h-2.7l-2.7-2.8l-3,0.1l-0.4,3.3l1.8,2.2l-2.1,6.7l-2.4,0.2l-3.8,2.4l-0.9,4.8l3.4,3.6l0.6-0.7l2.4-0.6l2,3.4l5.7-2.5
	l2.2,0.1l1.5,5.5l8.2,2.6l1.4,4.3l3.5,0.4l1.7,4.1l-1.1,3.7l1.5,2l-0.2,2.9l3.9-0.3l3.6,4.6l-0.3,3.2l2.2,1.8l-5.1,7.7L366.7,913.8
	L366.7,913.8z"/>
</svg>
